<?xml version="1.0" encoding="utf-8"?>
<!-- Generator: Adobe Illustrator 26.0.2, SVG Export Plug-In . SVG Version: 6.00 Build 0)  -->
<svg version="1.1" id="圖層_1" xmlns="http://www.w3.org/2000/svg" xmlns:xlink="http://www.w3.org/1999/xlink" x="0px" y="0px"
	 viewBox="0 0 130 40" style="enable-background:new 0 0 130 40;" xml:space="preserve">
<style type="text/css">
	.st0{opacity:0.8;}
	.st1{fill:#231815;}
</style>
<g class="st0">
	<path class="st1" d="M12.3,6.3c-0.7-0.5-1.1-0.9-1.2-1c-0.1-1.3,0-1.8,0.5-1.6c0.4,0.3,1,0.5,1.8,0.7c1.3,0.3,2.2,0.5,2.7,0.7
		c0.4,0.2,0.7,0.5,0.9,1c0.2,0.4,0.2,0.9-0.1,1.3c-0.2,0.2-0.3,0.6-0.5,1c2.3-0.3,4-0.5,5.4-0.6c1.5-0.1,2.7-0.3,3.8-0.6
		C26,7,26.3,7,26.5,7.2c0.4,0.3,0.9,0.6,1.3,0.7c0.5,0.1,0.8,0.4,1,0.7c0.1,0.1,0.1,0.4,0,0.7s-0.2,0.5-0.3,0.7
		c-0.1,0.2-0.2,0.3-0.3,0.4c-0.1,0.1-0.2,0.1-0.5,0c-0.1,0-0.3-0.1-0.6-0.2c-0.8-0.2-2-0.4-3.5-0.4c-3.1,0-5.4,0.1-7.2,0.3
		c-0.2,0-0.4,0.1-0.6,0.1c-0.2,0.3-0.5,0.6-0.8,1c-0.3,0.3-0.7,0.5-1,0.5c-0.4,0.1-0.7,0-0.8-0.1c-0.2-0.2-0.5-0.3-0.8-0.4
		c-0.1,0-0.2-0.1-0.2-0.2c-0.5,0.1-1.1,0.2-1.6,0.3c-2.5,0.7-4.2,1.4-5.4,2c-0.4,0.2-0.8,0.3-1,0.3c-0.4-0.1-0.7-0.2-1-0.3
		c-0.4-0.3-0.7-0.6-0.8-0.9C2.2,12,2,11.7,1.9,11.6c-0.1-0.1-0.1-0.2-0.1-0.3c0.1-0.1,0.4-0.2,1-0.3c0.5-0.1,1-0.1,1.3-0.2
		C6.4,10,9.2,9.4,12.3,9C12.6,7.5,12.6,6.6,12.3,6.3z M6.2,19.4c0-0.3,0.1-0.5,0.3-0.5c0.3,0,0.5,0.1,0.8,0.2c2-0.7,4-1.2,6-1.7
		c1.3-0.9,2.4-1.7,3.2-2.5s1.4-1.4,1.7-2c0.2-0.3,0.1-0.7-0.1-1s-0.2-0.5,0-0.5s0.3-0.1,0.4-0.2c0.1-0.1,0.2-0.1,0.5-0.1
		c0.5,0.1,0.9,0.2,1.3,0.4c0.4,0.1,0.6,0.3,0.7,0.5s0.1,0.4,0.1,0.6c-0.1,0.5-0.3,1.1-0.7,1.6c-0.4,0.5-1.1,1-1.8,1.5
		c-0.7,0.4-1.2,0.7-1.5,0.9c2.4-0.5,4-0.7,4.7-0.7c0.3,0,0.5-0.2,0.7-0.3s0.5-0.1,0.9,0.1c0.5,0.3,1,0.6,1.4,0.9s0.7,0.6,0.8,0.9
		c0.1,0.2,0,0.5-0.1,0.9c-0.2,0.7-0.2,2.4,0,5c0.2,3.4,0.3,6.1,0.3,8c0,1.2-0.2,2.2-0.6,2.9c-0.2,0.3-0.5,0.6-0.7,0.8
		c-0.5,0.4-1.1,0.8-1.7,1.2c-0.3,0.2-0.6,0-0.9-0.6c-1-0.7-2.3-1.4-3.9-2c-0.2-0.1-0.3-0.3-0.3-0.3c0.1-0.1,0.2-0.1,0.3-0.1
		c1.2,0.2,2.2,0.3,3.3,0.5c0.3,0,0.5-0.1,0.5-0.5c0.1-2.2,0.1-4.9,0.1-7.9c0-2.8,0.1-5.1,0.1-6.8c0-0.4-0.2-0.6-0.5-0.6
		c-1,0-2.2,0.1-3.4,0.2v0.1c0.1,0.3,0.2,0.6,0.2,0.9c0.2,0.6,0.5,1,1,1.1c0.3,0.1,0.5,0.2,0.6,0.5c0.1,0.2,0,0.5-0.2,0.7
		s-0.6,0.3-1,0.3c-0.4-0.1-0.9-0.2-1.3-0.1s-1,0.3-1.7,0.5c-0.1,0-0.1,0-0.2,0c-0.1-0.1,0-0.1,0.1-0.1c0.4-0.3,0.7-0.6,1-0.8
		c0.1-0.1,0.1-0.2,0-0.4c-0.2-0.3-0.3-0.5-0.3-0.7c-0.1-0.5-0.1-0.9,0-1.5c0,0,0,0,0-0.1c-0.2,0-0.4,0-0.6,0.1
		c-0.9,0.1-1.7,0.3-2.5,0.5c0,0.1,0,0.2,0,0.2c0,0.1,0,0.2,0,0.3c0,0.4-0.1,0.8-0.2,1.4c-0.2,0.5-0.4,1-0.7,1.6
		c-0.2,0.3-0.3,0.5-0.5,0.6c-0.2,0.2-0.4,0.3-0.5,0.4C10.7,24,10.5,24,10.4,24s-0.3,0-0.4,0.1c-0.1,0-0.1,0-0.1,0s0-0.1,0-0.2
		c0.4-0.6,0.7-1.2,0.8-1.8c0.2-0.8,0.3-1.5,0.3-2.1c0-0.1,0-0.2,0-0.2c-0.8,0.2-1.6,0.5-2.1,0.7c-0.2,0.1-0.3,0.1-0.5,0.1
		c0,0.3,0,0.6,0,1.1c-0.1,0.8,0,2.3,0.1,4.3s0,4.2-0.1,6.4c0,0.3-0.1,0.6-0.2,0.7c-0.1,0.2-0.2,0.3-0.3,0.5C7.6,33.9,7.4,34,7.2,34
		c-0.2,0-0.3-0.1-0.5-0.2C6.4,33.5,6.2,33.2,6,33s-0.2-0.4-0.2-0.6C5.9,32.1,6,32,6,31.8c0.2-3.7,0.2-6.4,0.2-8
		C6,22.1,6,20.7,6.2,19.4z M10.9,15.4c0.1,0.1,0.2,0.1,0.3,0.1c0.8-0.5,1.5-1,2.2-1.4c0.3-0.1,0.3,0,0.2,0.2c-0.6,0.7-1.3,1.7-2,3.2
		c-0.1,0.2-0.2,0.3-0.3,0.3c-0.2,0.1-0.4,0-0.7-0.1s-0.6-0.3-0.7-0.5c-0.5-0.4-0.8-0.9-1.1-1.4c-0.2-0.5-0.3-1.1-0.3-1.8
		c0.1-0.3,0.2-0.4,0.3-0.4c0.2,0,0.3,0.1,0.5,0.2C9.9,14.3,10.5,14.8,10.9,15.4z M16.3,24c0.2-0.1,0.5-0.1,1.1,0.1s1,0.4,1.2,0.5
		s0.3,0.3,0.2,0.5c0,0.2-0.1,0.6-0.3,1c-0.3,0.5-0.5,1-0.8,1.4c0.3,0,0.6,0,0.8,0.1c0.2,0.1,0.3,0.2,0.4,0.3
		c0.1,0.2,0.2,0.3,0.1,0.4c-0.2,0.2-0.3,0.4-0.3,0.7c-0.1,0.3-0.2,0.4-0.2,0.4c-0.1,0-0.2,0-0.2,0.1c-0.1,0-0.2,0.1-0.3,0.1
		c-1.6,0.1-3.2,0.4-5,0.9c-0.3,0.1-0.6,0.1-0.9-0.1c-0.1-0.1-0.2-0.2-0.3-0.2s-0.1,0-0.1,0.1c-0.1,0.1-0.2,0.1-0.3-0.1
		c-0.3-0.3-0.5-1-0.7-2c-0.3-1.1-0.4-1.9-0.5-2.4c0-0.3-0.1-0.5-0.1-0.6s0-0.2,0-0.2c0-0.1,0.1-0.1,0.2-0.1c0.2,0.1,0.4,0.1,0.6,0.1
		c0.2,0,0.4,0.2,0.6,0.4c0,0,0,0,0,0.1c1.4-0.5,2.6-0.8,3.6-1C15.6,24.3,16,24.2,16.3,24z M12.1,28.7c0.4-0.2,0.9-0.4,1.5-0.5
		c0.4-0.1,0.8-0.2,1.3-0.3c0.3-0.4,0.5-0.7,0.6-0.9c0.3-0.5,0.4-1,0.5-1.4c0-0.2,0-0.4,0-0.4c-0.1-0.1-0.2-0.1-0.4,0
		c-0.7,0.2-1.3,0.4-2,0.7c-0.8,0.3-1.3,0.5-1.6,0.8c-0.1,0-0.1,0-0.1,0.1C11.9,27.5,12,28.2,12.1,28.7z"/>
	<path class="st1" d="M38.2,29.3c0.2,0.7,0.2,1.5,0,2.5c-0.2,0.6-0.4,1.2-0.7,1.8c-0.2,0.3-0.5,0.7-0.9,1.1C36.2,35,36,35.1,35.9,35
		c-0.1-0.1-0.2-0.3-0.2-0.4c-0.1-0.6-0.1-1-0.2-1.3c-0.1-0.4,0-0.8,0.3-1.3c0.3-0.4,0.5-1,0.8-1.6c0-0.1,0.1-0.3,0.1-0.3
		c-0.7,0.3-1.3,0.6-2,0.9c-0.3,0.1-0.5,0.2-0.6,0.2c-0.3,0-0.6,0-0.8-0.2c-0.3-0.1-0.5-0.3-0.8-0.5C32.2,30.1,32,30,32,29.8
		s0-0.3-0.1-0.4c-0.1,0-0.1-0.1-0.1-0.2s0-0.1,0-0.1c0.1,0,0.1,0,0.2,0c0.1,0,0.1,0,0.2,0c0.1,0,0.2,0,0.3,0c0.3,0,0.9-0.2,1.8-0.4
		c1.5-0.4,2.9-0.9,4.3-1.4c0.9-0.3,1.5-0.6,1.8-0.7c0.1-0.1,0.2-0.1,0.3-0.1c0.3,0,0.5,0.1,0.7,0.1c0.1-0.8,0.1-1.7,0.1-2.6
		c0-0.2-0.1-0.3-0.3-0.2c-1.6,0.9-2.9,1.5-3.9,1.8c-0.2,0-0.2,0.1-0.3,0s-0.2-0.1-0.3-0.1c-0.2,0-0.3-0.1-0.4-0.2
		c-0.2-0.3-0.4-0.5-0.6-0.7c-0.1-0.1-0.2-0.3-0.2-0.5c0-0.1,0.1-0.3,0.4-0.3c0.2,0,0.3-0.3,0.3-0.8c0.1-1.5,0-2.8-0.2-4
		c-0.2-1-0.5-2.1-1-3.2c-0.1-0.3-0.2-0.5-0.1-0.5c0.1,0,0.2,0,0.3,0c0.2,0,0.4,0,0.5,0c0.1-0.1,0.3-0.1,0.7,0
		c0.8,0.2,1.4,0.6,1.9,1.1c0.2,0.2,0.3,0.4,0.3,0.5c-0.1,0.5-0.2,0.9-0.5,1.4c-0.3,0.6-0.4,2.2-0.3,5c0,0.1,0.1,0.2,0.2,0.1
		c1.5-0.2,2.4-0.6,2.9-1c0.4-0.3,0.9-0.5,1.5-0.6c0.4,0,0.7,0,0.8,0.1c0.2,0.1,0.4,0.3,0.4,0.5s0,0.5-0.1,0.7
		c-0.2,0.3-0.2,1.6-0.3,3.8c0,2.6,0,4.4,0,5.4c0,0.6,0,1.2,0,1.7c0,0.2-0.2,0.5-0.4,0.8s-0.5,0.5-0.7,0.5c-0.3,0-0.5-0.1-0.6-0.2
		c-0.1-0.1-0.2-0.3-0.2-0.4c0-0.2-0.1-0.5-0.2-0.8c-0.1-0.3,0-2.1,0.1-5.7C40.4,28.4,39.3,28.8,38.2,29.3z M41.3,7.6
		c-0.1-0.5-0.3-0.9-0.6-1.3c-0.1-0.2-0.2-0.4-0.2-0.5s0-0.2,0-0.3c0.1-0.1,0.1-0.2,0.1-0.3c0.1-0.1,0.2-0.1,0.3-0.1
		c0.4,0.1,0.7,0.1,1,0c0.2-0.1,0.4-0.1,0.6,0c0.4,0.2,0.8,0.4,1.2,0.5c0.5,0.2,0.7,0.3,0.8,0.5s0.1,0.4,0,0.7
		c-0.3,0.7-0.5,1.6-0.6,2.8c0.4-0.1,0.9-0.3,1.3-0.4c0.1,0,0.2-0.1,0.3-0.1s0.2,0,0.3,0c0.2,0,0.4,0.1,0.6,0c0.3,0,0.4,0,0.5,0.2
		C47,9.4,47,9.5,47,9.5c0,0.1,0,0.2,0,0.2c0,0.1,0,0.1,0,0.2c-0.1,0.1-0.1,0.2-0.1,0.3c-0.1,0.1-0.1,0.2-0.2,0.2
		c-0.1,0.1-0.2,0.2-0.5,0.3c-0.5,0.3-1,0.4-1.4,0.5c-0.5,0.1-0.8,0.2-0.9,0.2c-0.1,0-0.1,0-0.2,0c0,1,0,1.9,0,2.8
		c0.5-0.2,1-0.3,1.7-0.5c0.1,0,0.2-0.1,0.3-0.1s0.2,0,0.4,0s0.4,0.1,0.6,0c0.3,0,0.4,0.1,0.5,0.2c0.1,0.1,0.1,0.2,0.1,0.3
		s0,0.2,0,0.2c0,0.1,0,0.1,0,0.2c0,0.1-0.1,0.2-0.2,0.3C47,14.9,47,14.9,46.9,15c-0.1,0.1-0.2,0.2-0.5,0.2c-0.6,0.2-1.1,0.4-1.5,0.5
		s-0.7,0.1-0.9,0.1s-0.2,0-0.3,0.1c0,1,0.1,1.9,0.2,2.7c0.3-0.1,0.6-0.2,1-0.3c0.9-0.2,1.7-0.5,2.3-0.8c0,0,0.1-0.1,0.2-0.1
		c0-2,0.1-5.5,0.3-10.6c-0.1-0.3-0.2-0.5-0.3-0.6c-0.9,0-1.7-0.2-2.2-0.3c-0.2,0.1-0.3,0-0.3-0.1s0.1-0.2,0.3-0.2
		c0.4-0.1,1.3-0.7,2.8-1.8c0.3-0.2,0.7-0.3,1-0.3c0.4,0,0.7,0,1.1,0.1c0.3,0.2,0.6,0.4,0.7,0.6c0.2,0.2,0.4,0.5,0.6,0.9
		c0.3,0.3,0.4,0.7,0.4,1c0,0.4-0.2,0.7-0.6,1c-0.3,0.2-0.5,0.5-0.7,0.9c-0.2,0.4-0.3,1.2-0.3,2.4c-0.1,1.3-0.1,2.2-0.2,2.7
		c-0.1,0.5-0.1,1.2-0.1,2c0,1,0,1.7,0,2.1s0,0.9,0,1.4c0,0.4-0.1,0.8-0.2,1.1c-0.1,0.3-0.3,0.5-0.6,0.5s-0.5,0.1-0.6,0.3
		c-0.1,0.1-0.3,0.1-0.5,0s-0.3-0.4-0.5-0.8c-2,0.4-3.1,0.6-3.5,0.8c-0.2,0.1-0.4,0.1-0.8,0.1c-0.3,0-0.5-0.1-0.7-0.2l0,0
		c-0.1,0-0.1,0-0.1,0c-0.3,0.1-0.5,0.2-0.6,0.2s-0.2-0.3-0.3-0.8c-0.2-2-0.2-4.7-0.2-8C41.4,9.6,41.4,8.2,41.3,7.6z M47.3,21
		c-0.1-0.2,0-0.4,0.2-0.5c0.1,0,0.4,0,0.7,0.2c0.4,0.2,0.8,0.4,1.2,0.5c0.3,0,0.5,0.1,0.7,0.2c0,0,0.1,0,0.2-0.1
		c0.7-0.3,1.5-0.7,2.3-1.1c0,0,0,0,0-0.1c0.4-0.6,0.7-1.8,1.1-3.5c0.3-1.4,0.4-2.5,0.5-3.3c0-0.6-0.1-1-0.2-1.2
		c-0.2-0.4-0.2-0.7-0.1-0.9c0.1-0.2,0.2-0.3,0.2-0.4c0.1-0.1,0.2-0.1,0.4,0s0.4,0.2,0.7,0.3s0.7,0.4,1.2,0.7
		c0.4,0.2,0.6,0.4,0.7,0.6c0.2,0.3,0.3,0.4,0.4,0.5c0.1,0.1,0.2,0.3,0.2,0.5s-0.1,0.3-0.2,0.5c-0.2,0.3-0.4,0.6-0.5,1.1
		c-0.4,1.1-0.7,2.1-1.1,2.8c-0.3,0.7-0.7,1.3-1,2c0.2,0,0.3,0.1,0.4,0.1c0.2,0.1,0.4,0.2,0.4,0.3c0.1,0.1,0,0.3-0.2,0.6
		c-0.1,0.2-0.2,0.3-0.2,0.4s-0.2,0.2-0.5,0.4c-1.3,0.6-2.7,1.1-4,1.5c-0.1,0-0.2,0-0.2,0.1c-0.2,0.5-0.3,1.4-0.2,2.6
		c0.4-0.1,1-0.2,1.7-0.5c1.5-0.5,3.2-1.2,5.1-2.1c0.2-0.1,0.3-0.1,0.4-0.1c0.3,0,0.5,0.1,0.6,0.1c0.2,0.1,0.5,0.2,0.7,0.4
		c0.2,0.1,0.4,0.2,0.4,0.3c0,0.1-0.1,0.3-0.2,0.6c-0.1,0.2-0.2,0.3-0.2,0.4s-0.2,0.2-0.5,0.3c-0.5,0.2-1,0.4-1.5,0.6
		c0.3,0.1,0.5,0.2,0.6,0.4c0.2,0.2,0.3,0.5,0.3,0.7c0,0.3,0,0.5-0.1,0.6c-0.1,0.3-0.2,0.9-0.2,1.8c0,1.2,0,2.1,0,2.6
		c-0.1,0.7-0.1,1.5,0,2.3c0,0.3-0.1,0.5-0.2,0.7c-0.2,0.3-0.5,0.4-0.8,0.5c-0.2,0.1-0.4,0.1-0.5,0.1s-0.2-0.1-0.5-0.3
		c-0.2-0.2-0.4-0.4-0.7-0.7c-0.1-0.2-0.2-0.4-0.2-0.6c0-0.4,0-0.7,0.1-1s0.1-1.2,0-2.8c-0.1-1.5-0.1-2.7-0.1-3.7
		c-1.1,0.3-2.2,0.6-3.2,0.9c-0.3,0-0.4,0.1-0.5,0.1c-0.2,0-0.3-0.1-0.6-0.2c0,1.5,0,2.6,0,3.4c-0.1,1.2-0.1,2.5,0,3.8
		c0,0.3-0.1,0.6-0.2,0.7c-0.2,0.3-0.5,0.5-0.8,0.6s-0.5,0.2-0.6,0.2s-0.2-0.1-0.5-0.3s-0.5-0.5-0.7-0.8c-0.2-0.2-0.2-0.4-0.2-0.7
		c0-0.6,0.1-1.1,0.2-1.6c0.1-0.4,0.1-1.9,0.1-4.5c-0.1-2.5-0.1-4.6-0.2-6.3C47.3,21.4,47.3,21.2,47.3,21z"/>
	<path class="st1" d="M93.9,33.4c0.4,0.3,0.8,0.6,0.9,0.8c0.1,0.1,0,0.3-0.4,0.6c-0.5,0.3-1,0.5-1.6,0.6c-0.7,0.1-1.2,0.3-1.6,0.4
		c-0.4,0.2-0.8,0.2-1.1,0.1c-0.4-0.1-0.8-0.3-1.3-0.7c-1-0.6-2.1-1.6-3.4-3c-0.6-0.6-1-1.1-1.4-1.6c-0.4,0.5-0.7,0.9-1.2,1.2
		c-0.7,0.5-1.6,0.9-2.8,1.3c-0.2,0.1-0.3,0.1-0.4,0.1s-0.3,0-0.4,0c-0.2,0-0.3,0-0.5,0c-0.1,0-0.3-0.1-0.6,0c-0.1,0-0.2,0-0.3,0
		c0.4,0.3,0.8,0.6,1.1,1c0.1,0.1,0.2,0.3,0.1,0.6c0,0.2-0.1,0.5-0.3,0.7c-0.1,0.1-0.2,0.2-0.4,0.3c-0.2,0.1-0.4,0.2-0.5,0.3
		c-0.1,0-0.2,0-0.4-0.2c-1.9-1.4-3.5-2.5-5.1-3.2c-0.5,0.5-1.2,1-1.9,1.5c-0.7,0.4-1.3,0.6-1.9,0.8c-0.3,0.1-0.6,0.2-1,0.2
		c-0.2,0-0.5,0-0.7,0s-0.4-0.1-0.6-0.1C66,35,66,35,66,34.9c0-0.1,0.1-0.2,0.2-0.2s0.3,0,0.4,0c0.2,0,0.4-0.1,0.6-0.1
		c0.1,0,0.2-0.1,0.5-0.2c1.2-0.8,2.1-1.5,2.9-2.2c-0.8-0.3-1.4-0.5-1.8-0.5c-0.3,0-0.5-0.2-0.6-0.4c-0.1-0.2-0.3-0.7-0.4-1.3
		c0-0.3-0.1-0.4,0-0.5c-1,0.3-2,0.6-3,0.9c-0.3,0.1-0.5,0.2-0.7,0.1c-0.1,0-0.3-0.1-0.4-0.2c-0.3-0.3-0.6-0.7-0.9-1.2
		c-0.2-0.3-0.2-0.6,0.1-0.7c0.2-0.1,0.4-0.1,0.6-0.1c1.4-0.4,3-0.9,4.8-1.6c0.2-0.1,0.5-0.2,0.7-0.3c0-0.1,0.1-0.3,0.2-0.3
		c0.4-0.8,0.6-1.5,0.9-2.1c-0.8,0.2-1.2,0.4-1.5,0.4h-0.1l-0.1,0.1c-0.1,0.1-0.2,0.2-0.2,0.3c-0.1,0.1-0.2,0.1-0.4-0.1
		c-0.4-0.3-0.7-1.1-1.1-2.2c-0.4-1.2-0.7-2.1-0.8-2.7c-0.1-0.3-0.2-0.5-0.2-0.7c0-0.1-0.1-0.3,0-0.3c0-0.1,0.1-0.1,0.2-0.1
		c0.3,0.1,0.5,0.1,0.8,0.1s0.5,0.1,0.8,0.4c0,0.1,0.1,0.2,0.2,0.2c1-0.5,2-0.9,3-1.2c0-0.1,0-0.2,0-0.2c0-0.4,0-0.8,0-1.2
		c-0.6,0.1-1,0.2-1.2,0.2c-0.1,0-0.2,0-0.3,0c-0.1,0-0.1,0-0.1,0c-0.1,0.1-0.2,0.2-0.2,0.3c0.2-0.3,0.1-0.3-0.1-0.5
		c-0.4-0.5-0.9-1.4-1.4-2.9c-0.6-1.6-1-2.8-1.1-3.5c-0.1-0.4-0.1-0.7-0.2-0.9C66,9.3,66,9.2,66,9.1C66,9,66.1,8.9,66.3,9
		c0.2,0,0.5,0.1,0.7,0.1s0.4,0,0.5,0.2l0.1-0.1c1-0.4,2.2-0.7,3.5-0.9c0-1.4-0.1-2.4-0.2-2.8c-0.2-0.3-0.2-0.6-0.2-0.8
		c0-0.2,0.1-0.3,0.1-0.3s0.1,0,0.2,0.1c0.1,0,0.2,0,0.2,0c0.1,0,0.2-0.1,0.3-0.1c0.1,0,0.3,0,0.6,0.1c0.3,0.1,0.6,0.3,1,0.6
		c0.2,0.1,0.3,0.3,0.4,0.5s0.1,0.4,0,0.6c-0.1,0.5-0.3,1.1-0.4,2c1-0.2,1.8-0.3,2.7-0.3c0.1,0,0.3,0,0.4-0.1
		c0.2-0.2,0.4-0.2,0.5-0.1C76.8,7.6,77,7.8,77.3,8c0.2,0.1,0.4,0.2,0.6,0.3s0.4,0.3,0.6,0.5c0.1,0.2,0.1,0.5-0.2,0.8
		c-0.6,1-1.1,1.9-1.3,2.8c-0.3,1-0.6,1.8-0.8,2.1c-0.1,0.2-0.2,0.3-0.3,0.4C75.7,15,75.5,15,75.3,15c-0.1,0-0.2-0.1-0.3-0.1
		c-0.8,0.4-1.6,0.7-2.2,1c0,0.5,0,1,0,1.5c0.8-0.3,1.4-0.4,1.6-0.4s0.4-0.1,0.6-0.2c0.3-0.1,0.5-0.2,0.7-0.2c0.1,0,0.3,0,0.4,0
		s0.3,0.2,0.4,0.3c0.1,0.2,0.3,0.3,0.5,0.5c0.2,0.1,0.2,0.2,0.2,0.5c0.1,0.4,0,0.8-0.2,1.1c-0.4,0.5-0.6,0.9-0.8,1.3
		c-0.1,0.4-0.3,0.7-0.5,0.9c-0.1,0.1-0.2,0.2-0.4,0.3v0.1c-0.1,0.1-0.1,0.1-0.1,0.2c0,0-0.2,0.1-0.4,0.2c-1,0.5-1.9,1-2.6,1.3
		c0,0.1,0.1,0.1,0.1,0.1c0.1,0.1,0.2,0.3,0.1,0.6c0,0.2,0,0.4-0.1,0.6s-0.2,0.4-0.4,0.7c0.7-0.3,1.3-0.5,1.8-0.8
		c0.1-0.1,0.3-0.2,0.4-0.2c0-0.1,0.1-0.1,0.1-0.1c0.1-0.1,0.2-0.1,0.2,0c0.7-0.3,1.5-0.6,2.3-0.9c0.3-0.1,0.5-0.1,0.5,0
		s0,0.2-0.2,0.5c-0.4,0.4-0.7,0.8-1.1,1.2c0.1,0.1,0.2,0.2,0.2,0.4c0,0.2-0.1,0.3-0.2,0.6c-0.1,0.2-0.2,0.3-0.2,0.4
		c-0.1,0.9-0.3,1.8-0.6,2.6c-0.4,0.8-0.7,1.5-1.1,2.1c0.5,0.2,1,0.4,1.4,0.7c0.7,0.4,1.5,0.8,2.3,1.5l0,0c-0.1-0.2-0.1-0.4,0-0.4
		c0.4,0,0.8-0.1,1.2-0.2c0.4-0.1,0.8-0.3,1.2-0.7c1-0.8,1.8-1.9,2.4-3.1c-0.5-0.8-1.2-1.8-2.1-3c-1-1.4-1.8-2.4-2.4-3.2
		c-0.2-0.3-0.6-0.5-1-0.7c0-0.5,0-0.7,0-0.8c0-0.1,0.1-0.2,0.2-0.2c0,0,0.1,0,0.1-0.1s0-0.1,0.1-0.1s0.2,0,0.2,0
		c0.1,0.1,0.3,0.1,0.5,0.1c0.3,0,0.7,0.1,1.2,0.3c0.5,0.2,1.5,1.3,3.2,3.2c0.4,0.5,0.8,0.9,1.2,1.4c0.6-2,0.8-4.3,0.7-6.9
		c0-0.2-0.1-0.3-0.1-0.4c-0.6,0.2-1,0.4-1.2,0.6c-0.3,0.2-0.8,0.3-1.5,0.4c-0.2,0-0.4,0-0.5-0.1c-0.2,0.1-0.3,0.2-0.4,0.2
		c-0.4,0-0.9,0.2-1.2,0.6c-0.5,0.3-0.8,0.4-0.9,0.3c-0.1,0-0.1-0.3,0-0.9c0.3-0.7,0.5-1.4,0.8-2.2c0.3-0.7,0.5-1.5,0.7-2.2
		c0.4-1.1,0.6-2.2,0.8-3.2c0.2-1.2,0.4-2.1,0.5-2.9c0-0.6,0.1-1.1,0.1-1.6c0-0.3,0-0.5-0.1-0.6c-0.1-0.2-0.1-0.4,0-0.5
		s0.3-0.1,0.6-0.1c0.2,0.1,0.4,0.1,0.7,0.1c0.4,0,0.7,0,1,0.1s0.6,0.2,0.8,0.2C84.8,6.9,85,7,85,7.2c0.1,0.3,0.1,0.6,0,0.7
		c-0.1,0.2-0.2,0.4-0.2,0.7c-0.2,0.9-0.3,1.9-0.5,2.8c-0.2,1.1-0.5,2.2-0.8,3.2c-0.2,0.7-0.5,1.5-0.8,2.2c0.6-0.3,1.4-0.6,2.3-0.9
		c1.7-0.7,3.1-1.4,4.2-2.2c0.1-0.1,0.3-0.2,0.4-0.1c0.2,0.1,0.6,0.1,1,0.1c0.2,0,0.5,0.1,0.8,0.2c0.2,0.1,0.3,0.2,0.4,0.4
		c0,0.2,0,0.5-0.2,1.1c-0.1,0.2-0.3,0.3-0.8,0.5c-1.8,0.7-3.3,1.2-4.4,1.6c0.1,0,0.3,0.1,0.4,0.1c0.3,0.1,0.4,0.2,0.5,0.4
		c0.1,0.1,0.2,0.3,0.2,0.4c0,0.2,0,0.3-0.1,0.5s-0.2,0.3-0.2,0.5c-0.1,0.9-0.3,2-0.4,3.4s-0.4,2.9-1,4.6c0,0.1,0,0.1-0.1,0.1
		c0.9,0.8,1.8,1.6,2.7,2.3c1.8,1.4,3.1,2.3,3.9,2.6C93,32.8,93.6,33.1,93.9,33.4z M71.7,9.6c-0.9,0.3-1.8,0.6-2.8,1
		c-0.1,0-0.2,0-0.2,0.1c0.1,0.2,0.2,0.5,0.2,0.8c0.3,1.4,0.6,2.4,0.9,3.2c0.1,0.1,0.1,0.3,0.1,0.5c0.5-0.2,1-0.4,1.6-0.6
		c0-0.3,0-0.5,0-0.7c0-0.3,0-0.7,0-1c-0.1,0-0.1,0-0.2,0c-0.2,0-0.2,0-0.3,0.1c-0.2,0-0.4-0.1-0.7-0.6c-0.3-0.4-0.4-0.5-0.4-0.6
		l0.1-0.1c0.1,0,0.2,0,0.3-0.1c0.3-0.2,0.7-0.3,1.1-0.5C71.7,10.6,71.7,10.1,71.7,9.6z M71.5,19.1c-0.3,0.1-0.6,0.3-0.9,0.5
		C70,20,69.4,20.3,69,20.4c-0.2,0-0.2,0.1-0.3,0.1c0.1,0.8,0.3,1.4,0.4,1.9c0.7-0.3,1.4-0.6,2.3-0.8C71.5,20.7,71.5,19.8,71.5,19.1z
		 M74.7,26.5c-0.4,0.2-0.7,0.4-1,0.6c-0.9,0.4-2,0.8-3.2,1.3c-0.1,0.1-0.1,0.3-0.2,0.5s-0.1,0.3-0.1,0.4c0.1,0.2,0.5,0.3,1.2,0.5
		c0.5,0.1,1,0.2,1.5,0.4c0.4-0.6,0.8-1.2,1.1-1.7C74.3,27.8,74.5,27.2,74.7,26.5z M73.5,20.9c0.4-0.2,0.8-0.3,1.2-0.4
		c0.1,0,0.1,0,0.1,0c0.4-0.8,0.8-1.7,1-2.7c0.1,0,0.1-0.1,0.1-0.1s-0.1,0-0.2,0c-0.6,0.1-1.3,0.3-2.3,0.6c0,0.2,0,0.3,0,0.5
		C73.5,19.5,73.5,20.2,73.5,20.9z M73.5,13.9C73.5,13.9,73.5,14,73.5,13.9c0.5-0.1,1-0.3,1.7-0.5c0.1,0,0.2,0,0.2-0.1
		c0.1,0,0.1,0,0.2,0l0,0c0.4-1.4,0.7-2.6,1-3.5c0.2-0.7,0.2-1.1,0-1.2c-0.1-0.1-0.4-0.1-0.7-0.1c-0.7,0.1-1.5,0.2-2.3,0.5
		c0,0.2,0,0.4,0,0.6c0,0.3-0.1,0.5-0.1,0.8c0.1,0,0.1-0.1,0.2-0.1s0.2,0,0.3,0c0.2,0,0.3,0.1,0.5,0c0.2,0,0.3,0,0.4,0.1
		s0.1,0.2,0.1,0.2c0,0.1,0,0.2,0,0.2s0,0.1,0,0.2c0,0.2,0,0.2,0,0.3c-0.1,0.1-0.1,0.1-0.1,0.2c-0.1,0-0.2,0.1-0.4,0.2
		c-0.3,0.2-0.6,0.3-0.9,0.5C73.5,12.8,73.5,13.4,73.5,13.9z"/>
	<path class="st1" d="M101.6,7.1c0-0.2,0.1-0.3,0.2-0.4c0.1,0,0.4,0.1,0.9,0.4c0.2,0.2,0.8,0.4,1.8,0.6c0.4,0.1,0.9,0.3,1.3,0.5
		c0.4,0.2,0.6,0.6,0.6,1.1s-0.2,1-0.6,1.3c-0.4,0.4-0.9,1-1.5,1.8c-0.9,1.2-1.6,2.1-2.1,2.7c-0.3,0.3-0.6,0.6-0.9,1
		c0.1,0,0.2,0,0.3,0.1c0.3,0.2,0.7,0.3,1.3,0.3c0.6,0.1,0.9,0.2,1,0.5s0.1,0.6,0,0.9c-0.1,0.4-0.2,1-0.2,1.7c-0.1,2.3-0.1,4.2,0,5.8
		c0,2.2,0,3.9,0,5c0,0.9,0,1.5,0,1.8c0.1,0.3,0.1,0.6,0,0.8s-0.2,0.4-0.3,0.6c-0.1,0.1-0.3,0.3-0.5,0.5s-0.4,0.3-0.5,0.3
		s-0.2,0-0.3,0c-0.1,0-0.2-0.1-0.3-0.3c-0.2-0.3-0.4-0.7-0.5-1.2c-0.1-0.4-0.2-1-0.2-1.8c0-2.1,0-3.6,0-4.6c0.1-2.2,0.1-4.4,0-6.6
		c-0.1-1.4-0.2-2.3-0.4-2.6c-0.1,0-0.1-0.1-0.1-0.1c-0.1,0.1-0.2,0.3-0.3,0.5c-0.2,0.1-0.4,0.2-0.6,0.3c-0.3,0.1-0.7,0.1-1.2,0
		c-0.3,0-0.5,0-0.8,0.1c-0.2,0.1-0.2,0-0.3-0.2c-0.1-0.2-0.1-0.5-0.1-0.8s0.1-0.8,0.3-1.4c0.3-0.4,0.6-1.1,1.1-2
		c0.4-0.8,0.8-1.4,1.1-2c0.7-1.2,1.2-2.3,1.5-3.2C101.5,7.6,101.6,7.3,101.6,7.1z M118.4,22.1c0.1-0.5-0.1-1-0.6-1.5
		c-0.4-0.4-0.5-0.6-0.3-0.7c0.2,0,0.4-0.2,0.4-0.3c0-0.2,0.2-0.3,0.7-0.3c0.6-0.1,1.2-0.1,1.7,0s0.8,0.2,1.1,0.5
		c0.2,0.2,0.4,0.4,0.4,0.7c0.2,0.8,0.1,1.6-0.3,2.6c-0.3,0.9-1,1.8-1.9,2.9c-1.1,1.2-1.9,2-2.4,2.4s-0.9,0.6-1.1,0.8
		c-0.2,0.2-0.4,0.3-0.8,0.5c0.3,0,0.6-0.1,0.9-0.1c3-0.1,5.2-0.1,6.6,0c0.6,0.1,1.1,0,1.4-0.1c0.2-0.2,0.4-0.3,0.5-0.3
		c0.2,0,0.4,0.1,0.8,0.4c0.4,0.2,0.8,0.5,1.3,0.7c0.3,0.1,0.5,0.3,0.6,0.5s0.1,0.4,0.2,0.7c0.1,0.3,0,0.5-0.1,0.7s-0.3,0.4-0.5,0.5
		c-0.2,0.2-0.4,0.3-0.7,0.5c-0.1,0.1-0.3,0.1-0.4,0.1c-0.1-0.1-0.3-0.1-0.4-0.1c-1.8-0.3-3.6-0.4-5.4-0.4c-2.5,0.1-4.9,0.2-7.3,0.5
		c-1.5,0.2-2.6,0.3-3.2,0.5c-0.4,0.1-0.7,0.2-0.8,0.2c-0.2,0-0.3-0.1-0.4-0.2c-0.1-0.1-0.3-0.3-0.5-0.6c-0.3-0.3-0.5-0.6-0.6-0.9
		c-0.1-0.2-0.2-0.4-0.3-0.6c-0.1-0.2-0.1-0.4-0.2-0.6s0-0.4,0.1-0.5s0.2-0.2,0.3-0.2c0.1,0,0.3,0.1,0.6,0.1c0.2,0,0.5,0.1,0.8,0.1
		c1.6-0.4,3.4-0.7,5.2-0.8c1.3-1.5,2.4-2.9,3.1-4.1C117.6,24.3,118.2,23.1,118.4,22.1z M110.7,25.3
		C110.8,25.3,110.8,25.3,110.7,25.3c1.7-1.3,3.2-2.4,4.6-3.5c0.3-0.1,0.4,0,0.2,0.2c-1.3,1.1-2.7,3-4.4,5.5
		c-0.1,0.2-0.2,0.3-0.4,0.3c-0.3,0.1-0.5,0-0.8-0.1c-0.4-0.2-0.6-0.4-0.8-0.6c-0.5-0.6-0.8-1.2-1-1.7c-0.2-0.6-0.2-1.3,0-2.2
		c0.2-0.3,0.3-0.5,0.4-0.4c0.2,0.1,0.4,0.2,0.5,0.3C109.7,23.9,110.3,24.6,110.7,25.3z M114.3,15c1-0.5,1.9-0.8,2.5-1
		c0.8-0.3,1.5-0.5,2.1-0.7c0.5-0.2,0.8-0.3,0.9-0.4c0.1-0.1,0.2-0.1,0.4,0c0.2,0.1,0.4,0.1,0.8,0.1s0.6,0.1,0.7,0.1
		c0.2,0.1,0.3,0.3,0.4,0.4c0.2,0.1,0.3,0.3,0.3,0.6c0.1,0.2,0.1,0.4,0,0.6c0,0.2-0.1,0.4-0.1,0.6c-0.1,0.2-0.2,0.3-0.5,0.3
		c-0.3,0.1-0.5,0.2-0.8,0.2c-2,0.7-4.2,1.7-6.6,3.1c-0.4,0.2-0.7,0.2-0.9,0.2c-0.3,0-0.7-0.2-1.1-0.5c-0.6-0.5-1.1-0.8-1.2-1.1
		c-0.2-0.3-0.4-0.6-0.5-0.8c-0.1-0.2-0.1-0.4-0.1-0.5c0.1-0.1,0.2-0.2,0.4-0.2c0.4,0,0.7-0.1,1-0.2C112.6,15.7,113.4,15.4,114.3,15z
		 M114.2,6.8c0-0.2,0.1-0.4,0.2-0.4c0.3-0.1,0.6-0.1,1-0.1c0.2,0,0.5,0,0.8,0.1c0.6,0.1,1.2,0.2,1.8,0.5c0.3,0.1,0.6,0.3,1,0.5
		c0.2,0.2,0.4,0.4,0.6,0.7c0.2,0.3,0.3,0.5,0.3,0.6c0.1,0.2,0.1,0.5,0.1,0.7c0,0.4-0.2,0.7-0.7,0.9c-0.4,0.2-0.8,0.3-1.2,0.3
		c-0.7,0-1.6,0.5-2.7,1.5c-0.4,0.3-0.5,0.2-0.3-0.3c0.8-0.9,1.1-1.4,0.9-1.6c-0.6-0.6-1-1.4-1.2-2.1C114.4,7.3,114.3,7,114.2,6.8z"
		/>
</g>
</svg>
