<svg id="圖層_2" data-name="圖層 2" xmlns="http://www.w3.org/2000/svg" viewBox="0 0 100 100"><defs><style>.cls-1{fill:#231815;opacity:0.2;}.cls-2{fill:#f9d8e1;}.cls-3{fill:#ffb8ab;}.cls-4{fill:#8b072e;}</style></defs><path class="cls-1" d="M50,88.68c23.15,0,41.92-5.75,41.92-12.84S73.15,63,50,63,8.09,68.75,8.09,75.84,26.85,88.68,50,88.68Z"/><path class="cls-2" d="M87.48,59.24h-50V77.69h50c2.21,0,4-2.81,4-6.28v-5.9C91.47,62.05,89.69,59.24,87.48,59.24Z"/><path class="cls-3" d="M66,77.69c2.21,0,4-2.81,4-6.28v-5.9c0-3.46-1.78-6.27-4-6.27H76.76c2.19,0,4,2.81,4,6.27v5.9c0,3.47-1.79,6.28-4,6.28Z"/><path class="cls-4" d="M87.48,57.56h-50a1.68,1.68,0,0,0-1.68,1.68V77.69a1.71,1.71,0,0,0,1.68,1.68h50c3.18,0,5.66-3.49,5.66-8v-5.9C93.14,61.05,90.66,57.56,87.48,57.56ZM76.76,60.91c1.06,0,2.3,2,2.3,4.6v5.9c0,2.59-1.24,4.6-2.3,4.6H70.67a10.26,10.26,0,0,0,1-4.6v-5.9a10.26,10.26,0,0,0-1-4.6Zm-37.6,0H66c1.08,0,2.31,2,2.31,4.6v5.9C68.33,74,67.1,76,66,76H39.16Zm50.63,10.5c0,2.59-1.24,4.6-2.31,4.6H81.4a10.39,10.39,0,0,0,1-4.6v-5.9a10.39,10.39,0,0,0-1-4.6h6.08c1.07,0,2.31,2,2.31,4.6Z"/><path class="cls-3" d="M41.1,59.24H8.54c3.24,5.09,3.24,13.35,0,18.45H41.1c2.21,0,4-2.81,4-6.28v-5.9C45.09,62.05,43.31,59.24,41.1,59.24Z"/><path class="cls-4" d="M41.1,57.56H8.54a1.67,1.67,0,0,0-1.42,2.58C10,64.65,10,72.27,7.12,76.79a1.68,1.68,0,0,0,.52,2.31,1.66,1.66,0,0,0,.9.27H41.1c3.18,0,5.67-3.49,5.67-8v-5.9C46.77,61.05,44.28,57.56,41.1,57.56Zm2.31,13.85c0,2.59-1.24,4.6-2.31,4.6H11.26a19.69,19.69,0,0,0,1.32-5.87h24a1.68,1.68,0,1,0,0-3.35h-24a19.83,19.83,0,0,0-1.32-5.88H41.1c1.07,0,2.31,2,2.31,4.6Z"/><path class="cls-3" d="M80.1,40.78H28.81a6.28,6.28,0,0,0-6.28,6.28V53a6.28,6.28,0,0,0,6.28,6.28H80.1A13.07,13.07,0,0,1,80.1,40.78Z"/><path class="cls-3" d="M70.14,40.78V16.13H15.72c4.54,6.82,4.54,17.84,0,24.65Z"/><path class="cls-4" d="M78,50a11.28,11.28,0,0,1,3.33-8,1.68,1.68,0,0,0-1.19-2.86H71.82v-23a1.68,1.68,0,0,0-1.68-1.67H24.23c-9.2,0-9.2,0-9.69.48a1.7,1.7,0,0,0-.21,2.12c4.19,6.29,4.19,16.51,0,22.79a1.69,1.69,0,0,0-.08,1.72,1.67,1.67,0,0,0,1.47.89h6.62a7.86,7.86,0,0,0-1.48,4.6V53a8,8,0,0,0,8,7.95H80.1a1.68,1.68,0,0,0,1.19-2.86A11.3,11.3,0,0,1,78,50ZM20.18,34.36H62.67a1.68,1.68,0,0,0,0-3.36H20.72a28.84,28.84,0,0,0,0-5.09h42a1.68,1.68,0,0,0,0-3.35H20.18a23.77,23.77,0,0,0-1.59-4.76H68.46V39.11H18.59A23.89,23.89,0,0,0,20.18,34.36Zm8.63,23.2a4.6,4.6,0,0,1-4.6-4.6v-5.9a4.61,4.61,0,0,1,4.6-4.6H76.68a14.5,14.5,0,0,0-2,5.87h-42a1.68,1.68,0,0,0,0,3.36h42a14.45,14.45,0,0,0,2,5.87Z"/></svg>