<svg id="圖層_6" data-name="圖層 6" xmlns="http://www.w3.org/2000/svg" viewBox="0 0 100 100"><defs><style>.cls-1{fill:#231815;opacity:0.2;}.cls-2{fill:#ffb9ac;}.cls-3{fill:#8c072e;}</style></defs><path class="cls-1" d="M50,68.17c-17.65,0-32,4.38-32,9.79s14.31,9.79,32,9.79S82,83.37,82,78,67.65,68.17,50,68.17Z"/><path class="cls-2" d="M65.51,50.39c0,.41.41.75,1.2,1V49.25a1.76,1.76,0,0,0-.39.12Q65.51,49.75,65.51,50.39Z"/><polygon class="cls-2" points="25.99 84.17 29.35 84.17 35.42 71.06 32.06 71.06 25.99 84.17"/><rect class="cls-2" x="48.51" y="71.06" width="2.98" height="6.54"/><polygon class="cls-2" points="64.58 71.06 70.65 84.17 74.01 84.17 67.94 71.06 64.58 71.06"/><path class="cls-2" d="M69.26,53.83v2.53l.29-.11a1.41,1.41,0,0,0,.9-1.26C70.45,54.51,70.05,54.12,69.26,53.83Z"/><path class="cls-2" d="M53.55,21.46a3.56,3.56,0,1,0-7.11,0,1.28,1.28,0,0,1-1.27,1.28H17.45V68.51h65.1V22.74H54.83A1.29,1.29,0,0,1,53.55,21.46ZM79.9,26.82v37.6a1.27,1.27,0,0,1-1.27,1.27H21.37a1.28,1.28,0,0,1-1.28-1.27V26.82a1.28,1.28,0,0,1,1.28-1.27H78.63A1.27,1.27,0,0,1,79.9,26.82Z"/><path class="cls-2" d="M77.35,28.1H22.65v35h54.7ZM33.21,31h20a1.28,1.28,0,1,1,0,2.56h-20a1.28,1.28,0,0,1,0-2.56ZM28.38,53.56H27.24a1.28,1.28,0,0,1,0-2.56h1.14a1.28,1.28,0,0,1,0,2.56Zm0-13.32H27.24a1.28,1.28,0,0,1,0-2.56h1.14a1.28,1.28,0,1,1,0,2.56Zm0-6.66H27.24a1.28,1.28,0,0,1,0-2.56h1.14a1.28,1.28,0,1,1,0,2.56ZM41.31,60.22h-8.1a1.28,1.28,0,0,1,0-2.56h8.1a1.28,1.28,0,0,1,0,2.56ZM48,53.56H33.21a1.28,1.28,0,0,1,0-2.56H48a1.28,1.28,0,1,1,0,2.56ZM31.93,45.62a1.28,1.28,0,0,1,1.28-1.28h12a1.28,1.28,0,0,1,0,2.56h-12A1.28,1.28,0,0,1,31.93,45.62ZM48,40.24H33.21a1.28,1.28,0,0,1,0-2.56H48a1.28,1.28,0,0,1,0,2.56ZM71.6,57.33a6.64,6.64,0,0,1-2.34.75v.46a1.28,1.28,0,1,1-2.55,0v-.37a8.6,8.6,0,0,1-3.58-.75.71.71,0,0,1-.43-.62.68.68,0,0,1,.3-.56,1.18,1.18,0,0,1,.74-.21,8.68,8.68,0,0,1,1.62.28,11.56,11.56,0,0,0,1.35.25V53.25l-.5-.09a12.86,12.86,0,0,1-1.7-.48q-1.74-.66-1.74-2a2.61,2.61,0,0,1,1.55-2.32,6.46,6.46,0,0,1,2.39-.76v-.36a1.28,1.28,0,1,1,2.55,0v.34a6.06,6.06,0,0,1,2.39.65.54.54,0,0,1,.35.49.72.72,0,0,1-.28.59,1.26,1.26,0,0,1-.77.22,4.33,4.33,0,0,1-.91-.13l-.78-.19V52l.48.11a10.48,10.48,0,0,1,1.72.53,2.46,2.46,0,0,1,1.75,2.31A2.7,2.7,0,0,1,71.6,57.33Zm2.85-19.54a1.28,1.28,0,0,1-2.56,0v-2.4L54.5,52.78v6.16a1.28,1.28,0,1,1-2.56,0V52.26a1.4,1.4,0,0,1,.09-.47v0a1.54,1.54,0,0,1,.28-.42L70.08,33.58h-2.4a1.28,1.28,0,0,1,0-2.56h5.49a1.45,1.45,0,0,1,.47.09,0,0,0,0,0,0,0,1.28,1.28,0,0,1,.7.69v0a1.27,1.27,0,0,1,.09.47Z"/><path class="cls-3" d="M20.09,26.82v37.6a1.28,1.28,0,0,0,1.28,1.27H78.63a1.27,1.27,0,0,0,1.27-1.27V26.82a1.27,1.27,0,0,0-1.27-1.27H21.37A1.28,1.28,0,0,0,20.09,26.82Zm2.56,1.28h54.7v35H22.65Z"/><path class="cls-3" d="M83.83,20.18H56a6.11,6.11,0,0,0-12,0H16.17a1.28,1.28,0,0,0-1.28,1.28V69.79a1.27,1.27,0,0,0,1.28,1.27H29.24L22.83,84.91A1.28,1.28,0,0,0,24,86.73h6.18A1.28,1.28,0,0,0,31.33,86l6.9-14.93H46v7.83a1.28,1.28,0,0,0,1.28,1.28h5.54a1.28,1.28,0,0,0,1.28-1.28V71.06h7.72L68.67,86a1.28,1.28,0,0,0,1.16.74H76a1.28,1.28,0,0,0,1.08-.59,1.31,1.31,0,0,0,.09-1.23L70.76,71.06H83.83a1.27,1.27,0,0,0,1.28-1.27V21.46A1.28,1.28,0,0,0,83.83,20.18Zm-54.48,64H26l6.07-13.11h3.36Zm22.14-6.56h-3V71.06h3ZM74,84.17H70.65L64.58,71.06h3.36Zm8.54-15.66H17.45V22.74H45.17a1.28,1.28,0,0,0,1.27-1.28,3.56,3.56,0,1,1,7.11,0,1.29,1.29,0,0,0,1.28,1.28H82.55Z"/><path class="cls-3" d="M33.21,33.58h20a1.28,1.28,0,1,0,0-2.56h-20a1.28,1.28,0,0,0,0,2.56Z"/><path class="cls-3" d="M28.38,31H27.24a1.28,1.28,0,0,0,0,2.56h1.14a1.28,1.28,0,1,0,0-2.56Z"/><path class="cls-3" d="M48,37.68H33.21a1.28,1.28,0,0,0,0,2.56H48a1.28,1.28,0,0,0,0-2.56Z"/><path class="cls-3" d="M28.38,37.68H27.24a1.28,1.28,0,0,0,0,2.56h1.14a1.28,1.28,0,1,0,0-2.56Z"/><path class="cls-3" d="M33.21,46.9h12a1.28,1.28,0,0,0,0-2.56h-12a1.28,1.28,0,0,0,0,2.56Z"/><path class="cls-3" d="M48,51H33.21a1.28,1.28,0,0,0,0,2.56H48A1.28,1.28,0,1,0,48,51Z"/><path class="cls-3" d="M28.38,51H27.24a1.28,1.28,0,0,0,0,2.56h1.14a1.28,1.28,0,0,0,0-2.56Z"/><path class="cls-3" d="M41.31,57.66h-8.1a1.28,1.28,0,0,0,0,2.56h8.1a1.28,1.28,0,0,0,0-2.56Z"/><path class="cls-3" d="M74.35,31.81a1.28,1.28,0,0,0-.7-.69,0,0,0,0,1,0,0,1.45,1.45,0,0,0-.47-.09H67.68a1.28,1.28,0,0,0,0,2.56h2.4L52.31,51.35a1.54,1.54,0,0,0-.28.42v0a1.4,1.4,0,0,0-.09.47v6.68a1.28,1.28,0,1,0,2.56,0V52.78L71.89,35.39v2.4a1.28,1.28,0,0,0,2.56,0V32.3a1.27,1.27,0,0,0-.09-.47Z"/><path class="cls-3" d="M71.46,52.63a10.48,10.48,0,0,0-1.72-.53L69.26,52V49.2l.78.19a4.33,4.33,0,0,0,.91.13,1.26,1.26,0,0,0,.77-.22.72.72,0,0,0,.28-.59.54.54,0,0,0-.35-.49,6.06,6.06,0,0,0-2.39-.65v-.34a1.28,1.28,0,1,0-2.55,0v.36a6.46,6.46,0,0,0-2.39.76,2.61,2.61,0,0,0-1.55,2.32q0,1.35,1.74,2a12.86,12.86,0,0,0,1.7.48l.5.09v3.31a11.56,11.56,0,0,1-1.35-.25A8.68,8.68,0,0,0,63.74,56a1.18,1.18,0,0,0-.74.21.68.68,0,0,0-.3.56.71.71,0,0,0,.43.62,8.6,8.6,0,0,0,3.58.75v.37a1.28,1.28,0,1,0,2.55,0v-.46a6.64,6.64,0,0,0,2.34-.75,2.7,2.7,0,0,0,1.61-2.39A2.46,2.46,0,0,0,71.46,52.63Zm-4.75-1.22c-.79-.27-1.2-.61-1.2-1s.27-.77.81-1a1.76,1.76,0,0,1,.39-.12Zm2.84,4.84-.29.11V53.83c.79.29,1.19.68,1.19,1.16A1.41,1.41,0,0,1,69.55,56.25Z"/></svg>