<svg id="圖層_3" data-name="圖層 3" xmlns="http://www.w3.org/2000/svg" viewBox="0 0 100 100"><defs><style>.cls-1{fill:#231815;opacity:0.2;}.cls-2{fill:#f6ac6f;}.cls-3{fill:#5e3723;}.cls-4{fill:#1a171b;}.cls-5{fill:#ffdcc2;}</style></defs><path class="cls-1" d="M50,66.52c-16.47,0-29.82,4.09-29.82,9.14S33.53,84.79,50,84.79s29.82-4.09,29.82-9.13S66.47,66.52,50,66.52Z"/><path class="cls-2" d="M30.9,65c0,2.73-5.4,4.94-12,4.94S6.8,67.7,6.8,65,12.2,60,18.85,60,30.9,62.24,30.9,65Z"/><path class="cls-3" d="M18.85,71.1C12.43,71.1,5.61,69,5.61,65s6.82-6.13,13.24-6.13S32.09,61,32.09,65,25.27,71.1,18.85,71.1Zm0-9.88C12.22,61.22,8,63.44,8,65s4.23,3.74,10.86,3.74S29.71,66.5,29.71,65,25.48,61.22,18.85,61.22Z"/><path class="cls-2" d="M30.9,61c0,2.73-5.4,4.94-12,4.94S6.8,63.72,6.8,61s5.4-4.93,12.05-4.93S30.9,58.27,30.9,61Z"/><path class="cls-3" d="M18.85,67.12C12.43,67.12,5.61,65,5.61,61s6.82-6.13,13.24-6.13S32.09,57,32.09,61,25.27,67.12,18.85,67.12Zm0-9.87C12.22,57.25,8,59.47,8,61s4.23,3.75,10.86,3.75S29.71,62.52,29.71,61,25.48,57.25,18.85,57.25Z"/><path class="cls-2" d="M30.9,57c0,2.72-5.4,4.94-12,4.94S6.8,59.74,6.8,57s5.4-4.94,12.05-4.94S30.9,54.29,30.9,57Z"/><path class="cls-3" d="M18.85,63.15C12.43,63.15,5.61,61,5.61,57s6.82-6.13,13.24-6.13S32.09,53,32.09,57,25.27,63.15,18.85,63.15Zm0-9.88C12.22,53.27,8,55.49,8,57s4.23,3.74,10.86,3.74S29.71,58.54,29.71,57,25.48,53.27,18.85,53.27Z"/><path class="cls-2" d="M30.9,53c0,2.72-5.4,4.94-12,4.94S6.8,55.76,6.8,53s5.4-4.94,12.05-4.94S30.9,50.31,30.9,53Z"/><path class="cls-3" d="M18.85,59.17C12.43,59.17,5.61,57,5.61,53s6.82-6.13,13.24-6.13S32.09,49.05,32.09,53,25.27,59.17,18.85,59.17Zm0-9.88C12.22,49.29,8,51.51,8,53s4.23,3.75,10.86,3.75S29.71,54.57,29.71,53,25.48,49.29,18.85,49.29Z"/><path class="cls-2" d="M30.9,49.06c0,2.73-5.4,4.94-12,4.94s-12-2.21-12-4.94,5.4-4.94,12.05-4.94S30.9,46.33,30.9,49.06Z"/><path class="cls-3" d="M18.85,55.2C12.43,55.2,5.61,53,5.61,49.06s6.82-6.13,13.24-6.13,13.24,2.14,13.24,6.13S25.27,55.2,18.85,55.2Zm0-9.88C12.22,45.32,8,47.54,8,49.06s4.23,3.74,10.86,3.74,10.86-2.21,10.86-3.74S25.48,45.32,18.85,45.32Z"/><path class="cls-2" d="M30.9,45.08c0,2.73-5.4,4.94-12,4.94s-12-2.21-12-4.94,5.4-4.94,12.05-4.94S30.9,42.36,30.9,45.08Z"/><path class="cls-3" d="M18.85,51.22c-6.42,0-13.24-2.16-13.24-6.14S12.43,39,18.85,39s13.24,2.15,13.24,6.13S25.27,51.22,18.85,51.22Zm0-9.88C12.22,41.34,8,43.56,8,45.08s4.23,3.75,10.86,3.75,10.86-2.22,10.86-3.75S25.48,41.34,18.85,41.34Z"/><path class="cls-2" d="M30.9,41.11c0,2.72-5.4,4.94-12,4.94s-12-2.22-12-4.94,5.4-5,12.05-5S30.9,38.38,30.9,41.11Z"/><path class="cls-3" d="M18.85,47.24c-6.42,0-13.24-2.15-13.24-6.13S12.43,35,18.85,35s13.24,2.15,13.24,6.14S25.27,47.24,18.85,47.24Zm0-9.88C12.22,37.36,8,39.58,8,41.11s4.23,3.74,10.86,3.74,10.86-2.22,10.86-3.74S25.48,37.36,18.85,37.36Z"/><path class="cls-2" d="M30.9,37.13c0,2.72-5.4,4.94-12,4.94s-12-2.22-12-4.94,5.4-4.94,12.05-4.94S30.9,34.4,30.9,37.13Z"/><path class="cls-3" d="M18.85,43.26c-6.42,0-13.24-2.15-13.24-6.13S12.43,31,18.85,31s13.24,2.15,13.24,6.13S25.27,43.26,18.85,43.26Zm0-9.87C12.22,33.39,8,35.6,8,37.13s4.23,3.75,10.86,3.75,10.86-2.22,10.86-3.75S25.48,33.39,18.85,33.39Z"/><path class="cls-2" d="M93.2,56.53a2,2,0,0,1-2,2H46.66a2,2,0,0,1-2-2V32a2,2,0,0,1,2-2H91.23a2,2,0,0,1,2,2Z"/><path class="cls-3" d="M91.23,59.7H46.66a3.17,3.17,0,0,1-3.17-3.17V32a3.17,3.17,0,0,1,3.17-3.16H91.23A3.16,3.16,0,0,1,94.39,32V56.53A3.17,3.17,0,0,1,91.23,59.7ZM46.66,31.2a.76.76,0,0,0-.77.77V56.53a.77.77,0,0,0,.77.78H91.23a.77.77,0,0,0,.77-.78V32a.76.76,0,0,0-.77-.77Z"/><path class="cls-4" d="M87.38,55.65H50.5a2.73,2.73,0,0,1-2.82-2.6V35.47a2.73,2.73,0,0,1,2.82-2.61H87.38a2.73,2.73,0,0,1,2.83,2.61V53.05A2.73,2.73,0,0,1,87.38,55.65ZM50.5,35.24c-.28,0-.43.17-.43.23V53.05a.44.44,0,0,0,.43.22H87.38c.29,0,.44-.17.44-.22V35.47c0-.06-.15-.23-.44-.23Z"/><path class="cls-4" d="M69,52.7a1.19,1.19,0,0,1-1.2-1.19V37a1.2,1.2,0,0,1,2.39,0V51.51A1.19,1.19,0,0,1,69,52.7Z"/><path class="cls-4" d="M69.4,51a7.36,7.36,0,0,1-3.59-1.28,1.2,1.2,0,1,1,1.23-2c.56.34,1.87,1.12,2.67.9.12,0,.46-.13.83-.76.42-1.62-.2-1.94-2.13-2.65-.44-.16-.89-.34-1.32-.54a.2.2,0,0,1-.08,0,3.75,3.75,0,0,1-1.72-5.11c1-1.71,3.46-2.75,6.66-1a1.2,1.2,0,1,1-1.16,2.1c-1.77-1-3-.66-3.42.06-.29.52-.16,1.29.79,1.85.32.15.69.29,1.09.44,1.74.64,4.66,1.73,3.55,5.66a2.34,2.34,0,0,1-.09.24,3.89,3.89,0,0,1-2.36,2A3.56,3.56,0,0,1,69.4,51Z"/><path class="cls-4" d="M57,48.26a4,4,0,1,1,4-4A4,4,0,0,1,57,48.26Zm0-5.63a1.63,1.63,0,1,0,1.62,1.63A1.63,1.63,0,0,0,57,42.63Z"/><path class="cls-4" d="M80.83,48.26a4,4,0,1,1,4-4A4,4,0,0,1,80.83,48.26Zm0-5.63a1.63,1.63,0,1,0,1.63,1.63A1.63,1.63,0,0,0,80.83,42.63Z"/><path class="cls-2" d="M89.22,60.51a2,2,0,0,1-2,2H42.68a2,2,0,0,1-2-2V36a2,2,0,0,1,2-2H87.25a2,2,0,0,1,2,2Z"/><path class="cls-3" d="M87.25,63.68H42.68a3.17,3.17,0,0,1-3.16-3.17V36a3.17,3.17,0,0,1,3.16-3.17H87.25A3.17,3.17,0,0,1,90.41,36V60.51A3.17,3.17,0,0,1,87.25,63.68ZM42.68,35.17a.79.79,0,0,0-.78.79V60.51a.78.78,0,0,0,.78.78H87.25a.78.78,0,0,0,.78-.78V36a.79.79,0,0,0-.78-.79Z"/><path class="cls-4" d="M83.4,59.63H46.53A2.73,2.73,0,0,1,43.7,57V39.44a2.72,2.72,0,0,1,2.83-2.6H83.4a2.72,2.72,0,0,1,2.83,2.6V57A2.73,2.73,0,0,1,83.4,59.63ZM46.53,39.22c-.29,0-.44.17-.44.22V57s.15.21.44.21H83.4c.29,0,.44-.16.44-.21V39.44s-.15-.22-.44-.22Z"/><path class="cls-4" d="M65,56.68a1.19,1.19,0,0,1-1.19-1.2V41a1.19,1.19,0,1,1,2.38,0v14.5A1.2,1.2,0,0,1,65,56.68Z"/><path class="cls-4" d="M65.42,54.94a7.41,7.41,0,0,1-3.58-1.27,1.19,1.19,0,0,1,1.22-2.05c.56.33,1.87,1.11,2.67.9.12,0,.46-.13.83-.76.43-1.62-.2-1.94-2.12-2.66-.44-.16-.9-.33-1.33-.53l-.08,0a3.75,3.75,0,0,1-1.72-5.11c1-1.71,3.46-2.76,6.66-1a1.19,1.19,0,1,1-1.15,2.09c-1.78-1-3-.65-3.43.07-.29.52-.15,1.29.79,1.84.33.16.7.29,1.09.44,1.74.65,4.66,1.74,3.55,5.66a.85.85,0,0,1-.09.24,3.88,3.88,0,0,1-2.36,2A3.44,3.44,0,0,1,65.42,54.94Z"/><path class="cls-4" d="M53,52.24a4,4,0,1,1,4-4A4,4,0,0,1,53,52.24Zm0-5.63a1.62,1.62,0,1,0,1.62,1.62A1.63,1.63,0,0,0,53,46.61Z"/><path class="cls-4" d="M76.85,52.24a4,4,0,1,1,4-4A4,4,0,0,1,76.85,52.24Zm0-5.63a1.62,1.62,0,1,0,1.63,1.62A1.63,1.63,0,0,0,76.85,46.61Z"/><path class="cls-2" d="M85.24,64.49a2,2,0,0,1-2,2H38.71a2,2,0,0,1-2-2V39.93a2,2,0,0,1,2-2H83.27a2,2,0,0,1,2,2Z"/><path class="cls-3" d="M83.27,67.66H38.71a3.17,3.17,0,0,1-3.17-3.17V39.93a3.16,3.16,0,0,1,3.17-3.16H83.27a3.16,3.16,0,0,1,3.17,3.16V64.49A3.17,3.17,0,0,1,83.27,67.66ZM38.71,39.15a.77.77,0,0,0-.78.78V64.49a.77.77,0,0,0,.78.77H83.27a.77.77,0,0,0,.78-.77V39.93a.78.78,0,0,0-.78-.78Z"/><path class="cls-5" d="M81.06,61a1.54,1.54,0,0,1-1.63,1.42H42.55A1.54,1.54,0,0,1,40.92,61V43.42A1.53,1.53,0,0,1,42.55,42H79.43a1.53,1.53,0,0,1,1.63,1.41Z"/><path class="cls-3" d="M79.43,63.61H42.55A2.72,2.72,0,0,1,39.73,61V43.42a2.71,2.71,0,0,1,2.82-2.6H79.43a2.72,2.72,0,0,1,2.82,2.6V61A2.73,2.73,0,0,1,79.43,63.61ZM42.55,43.2c-.29,0-.44.16-.44.22V61c0,.06.15.22.44.22H79.43c.28,0,.44-.16.44-.22V43.42c0-.06-.16-.22-.44-.22Z"/><path class="cls-3" d="M61,60.65a1.19,1.19,0,0,1-1.2-1.19V45a1.2,1.2,0,0,1,2.39,0v14.5A1.19,1.19,0,0,1,61,60.65Z"/><path class="cls-3" d="M61.45,58.92a7.39,7.39,0,0,1-3.6-1.28,1.19,1.19,0,0,1,1.23-2c.56.33,1.87,1.12,2.68.89.11,0,.45-.12.83-.76.41-1.61-.21-1.93-2.13-2.65a13.72,13.72,0,0,1-1.33-.54l-.08,0a3.75,3.75,0,0,1-1.72-5.1c1-1.72,3.46-2.76,6.67-1a1.2,1.2,0,0,1-1.16,2.09c-1.78-1-3-.65-3.42.07-.3.51-.17,1.28.78,1.84.33.15.7.29,1.09.44,1.75.65,4.66,1.73,3.55,5.66a1,1,0,0,1-.09.24,3.83,3.83,0,0,1-2.36,2A3.38,3.38,0,0,1,61.45,58.92Z"/><path class="cls-2" d="M51.83,52.21A2.82,2.82,0,1,1,49,49.39,2.82,2.82,0,0,1,51.83,52.21Z"/><path class="cls-3" d="M49,56.22a4,4,0,1,1,4-4A4,4,0,0,1,49,56.22Zm0-5.63a1.63,1.63,0,0,0,0,3.25,1.63,1.63,0,1,0,0-3.25Z"/><path class="cls-2" d="M75.69,52.21a2.82,2.82,0,1,1-2.82-2.82A2.82,2.82,0,0,1,75.69,52.21Z"/><path class="cls-3" d="M72.87,56.22a4,4,0,1,1,4-4A4,4,0,0,1,72.87,56.22Zm0-5.63a1.63,1.63,0,0,0,0,3.25,1.63,1.63,0,1,0,0-3.25Z"/><path class="cls-2" d="M46.2,73.77c0,2.72-5.4,4.93-12.05,4.93s-12-2.21-12-4.93,5.39-4.94,12-4.94S46.2,71,46.2,73.77Z"/><path class="cls-3" d="M34.15,79.9c-6.42,0-13.24-2.15-13.24-6.13s6.82-6.13,13.24-6.13,13.24,2.14,13.24,6.13S40.57,79.9,34.15,79.9Zm0-9.88c-6.63,0-10.86,2.22-10.86,3.75s4.23,3.74,10.86,3.74S45,75.29,45,73.77,40.77,70,34.15,70Z"/><path class="cls-2" d="M46.2,69.79c0,2.73-5.4,4.94-12.05,4.94s-12-2.21-12-4.94,5.39-4.94,12-4.94S46.2,67.06,46.2,69.79Z"/><path class="cls-3" d="M34.15,75.92c-6.42,0-13.24-2.15-13.24-6.13s6.82-6.13,13.24-6.13,13.24,2.15,13.24,6.13S40.57,75.92,34.15,75.92Zm0-9.88c-6.63,0-10.86,2.22-10.86,3.75s4.23,3.74,10.86,3.74S45,71.31,45,69.79,40.77,66,34.15,66Z"/><path class="cls-2" d="M46.2,65.81c0,2.73-5.4,4.94-12.05,4.94s-12-2.21-12-4.94,5.39-4.94,12-4.94S46.2,63.09,46.2,65.81Z"/><path class="cls-3" d="M34.15,71.94c-6.42,0-13.24-2.15-13.24-6.13s6.82-6.13,13.24-6.13,13.24,2.15,13.24,6.13S40.57,71.94,34.15,71.94Zm0-9.87c-6.63,0-10.86,2.21-10.86,3.74s4.23,3.75,10.86,3.75S45,67.34,45,65.81,40.77,62.07,34.15,62.07Z"/><path class="cls-2" d="M46.2,61.84c0,2.72-5.4,4.94-12.05,4.94s-12-2.22-12-4.94,5.39-5,12-5S46.2,59.11,46.2,61.84Z"/><path class="cls-3" d="M34.15,68c-6.42,0-13.24-2.15-13.24-6.13s6.82-6.14,13.24-6.14,13.24,2.15,13.24,6.14S40.57,68,34.15,68Zm0-9.88c-6.63,0-10.86,2.22-10.86,3.75s4.23,3.74,10.86,3.74S45,63.36,45,61.84,40.77,58.09,34.15,58.09Z"/></svg>