<svg id="圖層_4" data-name="圖層 4" xmlns="http://www.w3.org/2000/svg" viewBox="0 0 100 100"><defs><style>.cls-1{fill:#231815;opacity:0.2;}.cls-2{fill:#fffad1;}.cls-3{fill:#fff59b;}.cls-4{fill:#8b4422;}</style></defs><path class="cls-1" d="M50,86.71c15.67,0,28.37-3.9,28.37-8.7S65.67,69.32,50,69.32,21.63,73.21,21.63,78,34.33,86.71,50,86.71Z"/><polygon class="cls-2" points="54.06 79.36 57.84 79.36 57.84 55.01 54.06 52.76 54.06 79.36"/><polygon class="cls-3" points="48.41 79.36 51.8 79.36 51.8 51.28 48.41 49.19 48.41 79.36"/><polygon class="cls-2" points="30.67 79.36 34.44 79.36 34.44 58.09 30.67 60.88 30.67 79.36"/><polygon class="cls-3" points="36.71 79.36 40.09 79.36 40.09 53.89 36.71 56.4 36.71 79.36"/><polygon class="cls-2" points="42.37 79.36 46.14 79.36 46.14 49.41 42.37 52.21 42.37 79.36"/><polygon class="cls-3" points="60.11 79.36 63.49 79.36 63.49 49.51 60.11 54.7 60.11 79.36"/><path class="cls-3" d="M77.28,21.56H21.11V25.2h2.52a1.14,1.14,0,1,1,0,2.27H21.11v3.72h2.52a1.14,1.14,0,1,1,0,2.27H21.11v3.83h2.52a1.14,1.14,0,1,1,0,2.27H21.11v3.71h2.52a1.14,1.14,0,1,1,0,2.27H21.11v3.79h2.52a1.14,1.14,0,1,1,0,2.27H21.11v3.71h2.52a1.14,1.14,0,1,1,0,2.27H21.11v3.75h2.52a1.14,1.14,0,0,1,0,2.28H21.11v3.81h2.52a1.14,1.14,0,1,1,0,2.27H21.11v3.77h2.52a1.14,1.14,0,1,1,0,2.27H21.11v3.63H28.4V60.25s0-.11,0-.16l0-.09a.88.88,0,0,1,.05-.15l0-.08a.67.67,0,0,1,.09-.14l.05-.06a1,1,0,0,1,.18-.17l11.7-8.67h0l6-4.48h0l.12-.07.08-.05h0l.07,0,.09,0h.52l.13,0,.05,0h.07l0,0,.06,0h0l10.76,6.63,5-7.75h0l6-9.26h0l2-3.14L70,33.08a1.14,1.14,0,0,1-.52-2.22L74,29.81a1.13,1.13,0,0,1,1.36.85l1.06,4.52a1.14,1.14,0,0,1-.85,1.37,1.09,1.09,0,0,1-.26,0,1.14,1.14,0,0,1-1.1-.88l-.46-1.94-2,3V79.36h5.48a1.62,1.62,0,0,0,1.61-1.62V23.19A1.62,1.62,0,0,0,77.28,21.56Z"/><polygon class="cls-2" points="65.76 79.36 69.53 79.36 69.53 40.25 65.76 46.03 65.76 79.36"/><path class="cls-4" d="M77.28,19.29H20a1.14,1.14,0,0,0-1.14,1.14V80.49A1.14,1.14,0,0,0,20,81.63H77.28a3.89,3.89,0,0,0,3.89-3.89V23.19A3.9,3.9,0,0,0,77.28,19.29ZM34.44,79.36H30.67V60.88l3.77-2.79Zm5.66,0H36.71v-23l3.39-2.51Zm6,0H42.37V52.21l3.77-2.8Zm5.66,0H48.41V49.19l3.39,2.09Zm6,0H54.06V52.76L57.84,55Zm5.65,0H60.11V54.71l3.38-5.2Zm6,0H65.76V46l3.77-5.78Zm9.36-1.62a1.62,1.62,0,0,1-1.61,1.62H71.8V36.77l2-3,.46,1.94a1.14,1.14,0,0,0,1.1.88,1.09,1.09,0,0,0,.26,0,1.14,1.14,0,0,0,.85-1.37l-1.06-4.52A1.13,1.13,0,0,0,74,29.81l-4.53,1.05A1.14,1.14,0,0,0,70,33.08l1.77-.41-2,3.14h0l-6,9.26h0l-5,7.75L47.87,46.19h0l-.06,0,0,0h-.07l-.05,0-.13,0H47l-.09,0-.07,0h0l-.08.05-.12.07h0l-6,4.48h0L28.86,59.4a1,1,0,0,0-.18.17l-.05.06a.67.67,0,0,0-.09.14l0,.08a.88.88,0,0,0-.05.15l0,.09s0,.11,0,.16V79.36H21.11V75.73h2.52a1.14,1.14,0,1,0,0-2.27H21.11V69.69h2.52a1.14,1.14,0,1,0,0-2.27H21.11V63.61h2.52a1.14,1.14,0,0,0,0-2.28H21.11V57.58h2.52a1.14,1.14,0,1,0,0-2.27H21.11V51.6h2.52a1.14,1.14,0,1,0,0-2.27H21.11V45.54h2.52a1.14,1.14,0,1,0,0-2.27H21.11V39.56h2.52a1.14,1.14,0,1,0,0-2.27H21.11V33.46h2.52a1.14,1.14,0,1,0,0-2.27H21.11V27.47h2.52a1.14,1.14,0,1,0,0-2.27H21.11V21.56H77.28a1.62,1.62,0,0,1,1.61,1.63Z"/></svg>