<svg id="圖層_5" data-name="圖層 5" xmlns="http://www.w3.org/2000/svg" viewBox="0 0 100 100"><defs><style>.cls-1{fill:#231815;opacity:0.2;}.cls-2{fill:#bae2ed;}.cls-3{fill:#324452;}.cls-4{fill:#d9f5fc;}</style></defs><path class="cls-1" d="M50,69.05c-15.93,0-28.85,4-28.85,8.84S34.06,86.73,50,86.73s28.85-4,28.85-8.84S65.92,69.05,50,69.05Z"/><polygon class="cls-2" points="25.92 42.75 56.15 24.2 86.37 42.75 25.92 42.75"/><polygon class="cls-2" points="41.97 38.48 56.15 29.75 70.32 38.48 41.97 38.48"/><path class="cls-3" d="M70.33,39.63H42a1.15,1.15,0,0,1-1.11-.84,1.16,1.16,0,0,1,.5-1.3l14.18-8.72a1.15,1.15,0,0,1,1.21,0l14.07,8.66a1.14,1.14,0,0,1,.67,1A1.16,1.16,0,0,1,70.33,39.63ZM46.05,37.32H66.24l-10.1-6.21Z"/><polygon class="cls-2" points="37.06 66.95 37.06 46.96 37.09 46.96 39.52 42.75 29.8 42.75 32.23 46.96 32.23 66.95 32.22 66.95 29.79 71.15 39.51 71.15 37.08 66.95 37.06 66.95"/><polygon class="cls-2" points="51.4 65.79 51.4 46.96 51.42 46.96 53.85 42.75 44.13 42.75 46.56 46.96 46.56 65.79 46.54 65.79 44.11 71.47 53.84 71.47 51.41 65.79 51.4 65.79"/><polygon class="cls-2" points="80.05 66.95 80.05 46.96 80.08 46.96 82.51 42.75 72.78 42.75 75.21 46.96 75.21 66.95 72.78 71.15 82.51 71.15 80.08 66.95 80.05 66.95"/><polygon class="cls-2" points="65.72 66.95 65.72 46.96 65.75 46.96 68.18 42.75 58.45 42.75 60.89 46.96 60.89 66.95 60.87 66.95 58.44 71.15 68.16 71.15 65.73 66.95 65.72 66.95"/><rect class="cls-2" x="25.92" y="71.47" width="60.45" height="4.95"/><polygon class="cls-2" points="69.83 14.43 56.15 14.43 56.15 21.36 69.83 21.36 66.19 17.89 69.83 14.43"/><path class="cls-3" d="M86.37,70.32h-3L81.2,66.59V47.32l2-3.41h3.22a1.16,1.16,0,0,0,.48-2.21L57.3,23.56v-1H69.83a1.15,1.15,0,0,0,.79-2L67.86,17.9l2.76-2.64a1.15,1.15,0,0,0-.79-2H56.14A1.15,1.15,0,0,0,55,14.43v9.13L25.32,41.77a1.16,1.16,0,0,0-.51,1.3,1.15,1.15,0,0,0,1.11.84h3.21l1.94,3.36V66.61l-2.14,3.71h-3a1.16,1.16,0,0,0-1.16,1.15v5a1.16,1.16,0,0,0,1.16,1.15H86.37a1.16,1.16,0,0,0,1.16-1.15v-5A1.16,1.16,0,0,0,86.37,70.32ZM57.3,15.72v-.14h9.64l-1.55,1.48a1.15,1.15,0,0,0,0,1.67L67,20.21H57.3ZM30,41.6l26.13-16,26.14,16H30Zm45.87,4.21-1.1-1.9h5.73l-1.1,1.9Zm3,2.31V65.79H76.37V48.12Zm-3,20h3.53l1.1,1.9H74.78ZM54.5,70.32l-2-3.39V47.32l2-3.41h3.27l1.94,3.36V66.61l-2.14,3.71Zm-6.79-4.53V48.12h2.53V65.79Zm3-20H47.22l-1.09-1.9h5.72ZM47.21,68.42h3.53l1.1,1.9H46.11Zm19,1.58H60.44l1.09-1.9h3.54Zm-1.6-4.21H62V48.12h2.53Zm.51-20H61.55l-1.09-1.9h5.72ZM69,70.32l-2.15-3.71V47.32l2-3.41h3.28l1.94,3.36V66.64l-2.13,3.68ZM35.91,65.79H33.39V48.12h2.52Zm.52-20H32.9l-1.1-1.9h5.73ZM32.88,68.1h3.53l1.1,1.9H31.79Zm5.34-1.49V47.32l2-3.41h3.27l1.94,3.36V66.93l-1.95,3.39H40.37Zm47,8.66H27.07V72.63H85.22Z"/><rect class="cls-4" x="13.61" y="58.23" width="55.81" height="23.73"/><path class="cls-3" d="M69.42,83.11H13.61A1.15,1.15,0,0,1,12.46,82V58.23a1.16,1.16,0,0,1,1.15-1.16H69.42a1.16,1.16,0,0,1,1.16,1.16V82A1.15,1.15,0,0,1,69.42,83.11ZM14.77,80.8h53.5V59.39H14.77Z"/><path class="cls-3" d="M19.39,65.9a1.56,1.56,0,0,1-1.55-1.54,1.52,1.52,0,0,1,1.51-1.54h0a1.54,1.54,0,1,1,0,3.08Z"/><path class="cls-3" d="M57.39,65.9h-.08a1.54,1.54,0,0,1,0-3.08h.08a1.54,1.54,0,0,1,0,3.08Zm-6.33,0H51a1.54,1.54,0,1,1,0-3.08h.08a1.54,1.54,0,1,1,0,3.08Zm-6.33,0h-.08a1.54,1.54,0,1,1,0-3.08h.08a1.54,1.54,0,0,1,0,3.08Zm-6.34,0h-.08a1.54,1.54,0,1,1,0-3.08h.08a1.54,1.54,0,0,1,0,3.08Zm-6.33,0H32a1.54,1.54,0,1,1,0-3.08h.08a1.54,1.54,0,1,1,0,3.08Zm-6.33,0h-.08a1.54,1.54,0,1,1,0-3.08h.08a1.54,1.54,0,0,1,0,3.08Z"/><path class="cls-3" d="M63.69,65.9a1.56,1.56,0,0,1-1.57-1.54,1.53,1.53,0,0,1,1.53-1.54h0a1.54,1.54,0,0,1,0,3.08Z"/><path class="cls-3" d="M19.39,71.63a1.55,1.55,0,0,1-1.55-1.53,1.51,1.51,0,0,1,1.51-1.54h0a1.54,1.54,0,1,1,0,3.07Z"/><path class="cls-3" d="M57.39,71.63h-.08a1.54,1.54,0,0,1,0-3.07h.08a1.54,1.54,0,1,1,0,3.07Zm-6.33,0H51a1.54,1.54,0,1,1,0-3.07h.08a1.54,1.54,0,1,1,0,3.07Zm-6.33,0h-.08a1.54,1.54,0,1,1,0-3.07h.08a1.54,1.54,0,0,1,0,3.07Zm-6.34,0h-.08a1.54,1.54,0,1,1,0-3.07h.08a1.54,1.54,0,1,1,0,3.07Zm-6.33,0H32a1.54,1.54,0,1,1,0-3.07h.08a1.54,1.54,0,1,1,0,3.07Zm-6.33,0h-.08a1.54,1.54,0,1,1,0-3.07h.08a1.54,1.54,0,0,1,0,3.07Z"/><path class="cls-3" d="M63.69,71.63a1.56,1.56,0,0,1-1.57-1.53,1.52,1.52,0,0,1,1.53-1.54h0a1.54,1.54,0,0,1,0,3.07Z"/><path class="cls-3" d="M51,77.36H32a1.54,1.54,0,1,1,0-3.08H51a1.54,1.54,0,1,1,0,3.08Z"/><path class="cls-3" d="M19.39,77.36a1.56,1.56,0,0,1-1.55-1.54,1.52,1.52,0,0,1,1.51-1.54h0a1.54,1.54,0,1,1,0,3.08Z"/><path class="cls-3" d="M25.67,77.36a1.56,1.56,0,0,1-1.55-1.54,1.52,1.52,0,0,1,1.52-1.54h0a1.54,1.54,0,1,1,0,3.08Z"/><path class="cls-3" d="M57.35,77.36a1.56,1.56,0,0,1-1.56-1.54,1.52,1.52,0,0,1,1.52-1.54h0a1.54,1.54,0,1,1,0,3.08Z"/><path class="cls-3" d="M63.69,77.36a1.56,1.56,0,0,1-1.57-1.54,1.53,1.53,0,0,1,1.53-1.54h0a1.54,1.54,0,0,1,0,3.08Z"/></svg>