<svg id="圖層_1" data-name="圖層 1" xmlns="http://www.w3.org/2000/svg" viewBox="0 0 100 100"><defs><style>.cls-1{fill:#231815;opacity:0.2;}.cls-2{fill:#c6e1c9;}.cls-3{fill:#ade99f;}.cls-4{fill:#39643a;}</style></defs><path class="cls-1" d="M50,69.48c-19,0-34.36,4.7-34.36,10.53S31,90.53,50,90.53,84.36,85.82,84.36,80,69,69.48,50,69.48Z"/><rect class="cls-2" x="32.24" y="72.15" width="6.53" height="10.52"/><rect class="cls-2" x="61.22" y="72.15" width="6.53" height="10.52"/><path class="cls-3" d="M87,19.68H13a3.21,3.21,0,0,0-3.21,3.2V66H90.22V22.88A3.21,3.21,0,0,0,87,19.68Z"/><path class="cls-4" d="M90.22,67.36H9.78A1.38,1.38,0,0,1,8.4,66V22.88A4.59,4.59,0,0,1,13,18.3H87a4.6,4.6,0,0,1,4.6,4.58V66A1.38,1.38,0,0,1,90.22,67.36ZM11.15,64.61H88.84V22.88A1.84,1.84,0,0,0,87,21.05H13a1.85,1.85,0,0,0-1.84,1.83Z"/><path class="cls-4" d="M56.5,67.33a1.52,1.52,0,0,1-.57-.13,1.36,1.36,0,0,1-.67-1.82L63.5,47.43A1.38,1.38,0,0,1,66,48.58l-8.25,18A1.39,1.39,0,0,1,56.5,67.33Z"/><path class="cls-4" d="M78.5,67.33a1.38,1.38,0,0,1-1.25-.8L69,48.58a1.38,1.38,0,0,1,2.5-1.15l8.25,17.95a1.36,1.36,0,0,1-.68,1.82A1.44,1.44,0,0,1,78.5,67.33Z"/><rect class="cls-2" x="52.54" y="27.31" width="29.94" height="27.49"/><path class="cls-4" d="M82.47,56.18H52.54a1.38,1.38,0,0,1-1.38-1.38V27.31a1.38,1.38,0,0,1,1.38-1.38H82.47a1.38,1.38,0,0,1,1.38,1.38V54.8A1.38,1.38,0,0,1,82.47,56.18ZM53.91,53.43H81.1V28.68H53.91Z"/><path class="cls-2" d="M39,32.69a6.28,6.28,0,1,1-6.28-6.28A6.28,6.28,0,0,1,39,32.69Z"/><path class="cls-2" d="M43.76,65.47c-6.06,4.57-16,4.57-22,0-.08-1.55-.12-3-.12-4.14C21.59,48,26.58,43,32.73,43s11.15,5,11.15,18.33C43.88,62.5,43.84,63.92,43.76,65.47Z"/><path class="cls-4" d="M63,49.22a1.38,1.38,0,0,0-1.62-1.07c-7.66,1.56-9.72.09-12.56-1.94S42.7,41.88,34.1,41.64V40.21a7.65,7.65,0,1,0-2.74,0v1.45c-10.9.3-17.13,4.22-17.13,10.88a18.1,18.1,0,0,0,2.26,9,1.36,1.36,0,0,0,1.21.74,1.44,1.44,0,0,0,.64-.16,1.37,1.37,0,0,0,.58-1.85A15.45,15.45,0,0,1,17,52.54c0-4.29,3.59-6.37,7.73-7.36-2.49,2.78-4.49,7.65-4.49,16.15,0,1.19,0,2.65.11,4.21a1.39,1.39,0,0,0,.54,1,19.73,19.73,0,0,0,11.24,3.68l.24,0h.38a19.88,19.88,0,0,0,11.86-3.68,1.47,1.47,0,0,0,.55-1c.07-1.56.11-3,.11-4.21,0-8.42-2-13.28-4.43-16.06a17.77,17.77,0,0,1,6.37,3.18c3,2.16,5.87,4.19,14.71,2.39A1.38,1.38,0,0,0,63,49.22ZM27.83,32.69a4.91,4.91,0,1,1,4.9,4.91A4.9,4.9,0,0,1,27.83,32.69ZM23,61.33c0-9.91,2.86-15.78,8.09-16.78,4.67,11.26,1.57,20.29.44,22.92A17.26,17.26,0,0,1,23,64.75C23,63.48,23,62.31,23,61.33Zm19.45,3.42a16.82,16.82,0,0,1-7.92,2.66A32.3,32.3,0,0,0,34,44.46c5.51.76,8.52,6.68,8.52,16.87C42.5,62.31,42.48,63.48,42.42,64.75Z"/><path class="cls-3" d="M9.78,68.93A3.21,3.21,0,0,0,13,72.15H87a3.22,3.22,0,0,0,3.22-3.22V66H9.78Z"/><path class="cls-4" d="M90.22,64.58H9.78A1.37,1.37,0,0,0,8.4,66v3A4.6,4.6,0,0,0,13,73.52H30.87v7.32H24a1.84,1.84,0,0,0,0,3.67H76a1.84,1.84,0,0,0,0-3.67H69.13V73.52H87a4.6,4.6,0,0,0,4.6-4.59V66A1.37,1.37,0,0,0,90.22,64.58Zm-56.6,8.94H37.4v7.32H33.62Zm26.23,0v7.32H40.15V73.52Zm6.53,7.32H62.6V73.52h3.78ZM88.84,68.93A1.84,1.84,0,0,1,87,70.77H13a1.84,1.84,0,0,1-1.84-1.84v-1.6H88.84Z"/><path class="cls-4" d="M67.5,67.33A1.38,1.38,0,0,1,66.13,66V54.8a1.38,1.38,0,0,1,2.75,0V66A1.38,1.38,0,0,1,67.5,67.33Z"/><path class="cls-4" d="M72.13,33.57H62.88a1.38,1.38,0,0,1,0-2.75h9.25a1.38,1.38,0,0,1,0,2.75Z"/><path class="cls-4" d="M76.59,40H58.41a1.38,1.38,0,0,1,0-2.75H76.59a1.38,1.38,0,1,1,0,2.75Z"/><path class="cls-4" d="M76.59,46.4H58.41a1.38,1.38,0,0,1,0-2.75H76.59a1.38,1.38,0,1,1,0,2.75Z"/></svg>