<?xml version="1.0" encoding="UTF-8"?><svg id="a" xmlns="http://www.w3.org/2000/svg" viewBox="0 0 300 300"><defs><style>.b{fill:#57dcf2;}.c{fill:#ffde8a;}.d{fill:none;stroke:#34303d;stroke-miterlimit:10;stroke-width:8.65px;}.e{fill:#e83c3c;}.f{fill:#ff5f5c;}.g{fill:#ffc252;}</style></defs><g><path class="d" d="M37.59,217.69h224.82v25.94c0,2.21-.84,4.42-2.53,6.11-1.69,1.69-3.9,2.53-6.11,2.53H46.24c-2.21,0-4.42-.84-6.11-2.53-1.69-1.69-2.53-3.9-2.53-6.11v-25.94Z"/><path class="d" d="M210.53,62.04h43.24c2.21,0,4.42,.84,6.11,2.53,1.69,1.69,2.53,3.9,2.53,6.11V217.69H37.59V70.69c0-2.21,.84-4.42,2.53-6.11,1.69-1.69,3.9-2.53,6.11-2.53h43.24"/><path class="d" d="M197.56,291.19c0-2.21-.84-4.42-2.53-6.11-1.69-1.69-3.9-2.53-6.11-2.53H111.09c-2.21,0-4.42,.84-6.11,2.53-1.69,1.69-2.53,3.9-2.53,6.11"/><polygon class="d" points="175.94 252.28 124.06 252.28 119.74 282.54 180.26 282.54 175.94 252.28"/><line class="d" x1="137.03" y1="234.98" x2="162.97" y2="234.98"/></g><rect class="b" x="54.88" y="79.34" width="190.23" height="121.06"/><g><rect class="f" x="162.97" y="18.81" width="17.29" height="181.59"/><rect class="e" x="180.26" y="18.81" width="17.29" height="181.59"/><polyline class="d" points="197.56 200.4 197.56 18.81 162.97 18.81 162.97 200.4"/><g><line class="d" x1="184.59" y1="40.43" x2="175.94" y2="40.43"/><line class="d" x1="175.94" y1="62.04" x2="162.97" y2="62.04"/><line class="d" x1="175.94" y1="79.34" x2="162.97" y2="79.34"/><line class="d" x1="175.94" y1="96.63" x2="162.97" y2="96.63"/><line class="d" x1="175.94" y1="113.93" x2="162.97" y2="113.93"/><line class="d" x1="175.94" y1="131.22" x2="162.97" y2="131.22"/><line class="d" x1="175.94" y1="148.51" x2="162.97" y2="148.51"/><line class="d" x1="175.94" y1="165.81" x2="162.97" y2="165.81"/><line class="d" x1="175.94" y1="183.1" x2="162.97" y2="183.1"/></g></g><g><polygon class="c" points="119.74 79.34 102.44 57.72 102.44 200.4 119.74 200.4 119.74 79.34"/><polygon class="g" points="119.74 79.34 137.03 57.72 137.03 200.4 119.74 200.4 119.74 79.34"/><line class="d" x1="119.74" y1="200.4" x2="119.74" y2="79.34"/><polyline class="d" points="102.44 200.4 102.44 57.72 119.74 27.46 137.03 57.72 137.03 200.4"/><polyline class="d" points="137.03 57.72 119.74 79.34 102.44 57.72"/></g></svg>