<?xml version="1.0" encoding="UTF-8"?><svg id="a" xmlns="http://www.w3.org/2000/svg" viewBox="0 0 300 300"><defs><style>.b{fill:#fff;}.c{fill:#57dcf2;}.d{fill:#ff5f5c;}.e{fill:none;stroke:#34303d;stroke-miterlimit:10;stroke-width:8.63px;}</style></defs><rect class="d" x="63.69" y="28.3" width="103.58" height="38.84"/><path class="c" d="M236.31,123.24h-103.58v-38.84c0-4.42-1.69-8.84-5.06-12.21-3.37-3.37-7.79-5.06-12.21-5.06h103.58c4.42,0,8.84,1.69,12.2,5.06,3.37,3.37,5.06,7.79,5.06,12.21v38.84Z"/><rect class="d" x="132.74" y="149.14" width="103.58" height="60.42"/><polygon class="b" points="175.89 166.4 201.79 179.35 175.89 192.29 175.89 166.4"/><rect class="c" x="132.74" y="235.45" width="103.58" height="43.16"/><path class="e" d="M283.78,278.61V84.4c0-4.42-1.69-8.84-5.06-12.21-3.37-3.37-7.79-5.06-12.2-5.06H68c4.42,0,8.84,1.69,12.21,5.06,3.37,3.37,5.06,7.79,5.06,12.21v194.2"/><g><line class="e" x1="102.53" y1="80.09" x2="102.53" y2="88.72"/><line class="e" x1="102.53" y1="97.35" x2="102.53" y2="105.98"/><line class="e" x1="102.53" y1="114.61" x2="102.53" y2="123.24"/><line class="e" x1="102.53" y1="131.88" x2="102.53" y2="140.51"/><line class="e" x1="102.53" y1="149.14" x2="102.53" y2="157.77"/><line class="e" x1="102.53" y1="166.4" x2="102.53" y2="175.03"/><line class="e" x1="102.53" y1="183.66" x2="102.53" y2="192.29"/><line class="e" x1="102.53" y1="200.93" x2="102.53" y2="209.56"/><line class="e" x1="102.53" y1="218.19" x2="102.53" y2="226.82"/><line class="e" x1="102.53" y1="235.45" x2="102.53" y2="244.08"/><line class="e" x1="102.53" y1="252.71" x2="102.53" y2="261.34"/><line class="e" x1="102.53" y1="269.98" x2="102.53" y2="278.61"/></g><g><line class="e" x1="33.48" y1="28.3" x2="33.48" y2="36.93"/><line class="e" x1="33.48" y1="45.56" x2="33.48" y2="54.19"/><line class="e" x1="33.48" y1="62.83" x2="33.48" y2="71.46"/><line class="e" x1="33.48" y1="80.09" x2="33.48" y2="88.72"/><line class="e" x1="33.48" y1="97.35" x2="33.48" y2="105.98"/><line class="e" x1="33.48" y1="114.61" x2="33.48" y2="123.24"/><line class="e" x1="33.48" y1="131.88" x2="33.48" y2="140.51"/><line class="e" x1="33.48" y1="149.14" x2="33.48" y2="157.77"/><line class="e" x1="33.48" y1="166.4" x2="33.48" y2="175.03"/><line class="e" x1="33.48" y1="183.66" x2="33.48" y2="192.29"/><line class="e" x1="33.48" y1="200.93" x2="33.48" y2="209.56"/><line class="e" x1="33.48" y1="218.19" x2="33.48" y2="226.82"/></g><g><line class="e" x1="197.47" y1="28.3" x2="197.47" y2="36.93"/><line class="e" x1="197.47" y1="45.56" x2="197.47" y2="54.19"/></g><g><line class="e" x1="266.52" y1="80.09" x2="266.52" y2="88.72"/><line class="e" x1="266.52" y1="97.35" x2="266.52" y2="105.98"/><line class="e" x1="266.52" y1="114.61" x2="266.52" y2="123.24"/><line class="e" x1="266.52" y1="131.88" x2="266.52" y2="140.51"/><line class="e" x1="266.52" y1="149.14" x2="266.52" y2="157.77"/><line class="e" x1="266.52" y1="166.4" x2="266.52" y2="175.03"/><line class="e" x1="266.52" y1="183.66" x2="266.52" y2="192.29"/><line class="e" x1="266.52" y1="200.93" x2="266.52" y2="209.56"/><line class="e" x1="266.52" y1="218.19" x2="266.52" y2="226.82"/><line class="e" x1="266.52" y1="235.45" x2="266.52" y2="244.08"/><line class="e" x1="266.52" y1="252.71" x2="266.52" y2="261.34"/><line class="e" x1="266.52" y1="269.98" x2="266.52" y2="278.61"/></g><path class="e" d="M102.53,67.14c4.42,0,8.84,1.69,12.21,5.06,3.37,3.37,5.06,7.79,5.06,12.21v194.2"/><path class="e" d="M232,67.14c4.42,0,8.83,1.69,12.2,5.06,3.37,3.37,5.06,7.79,5.06,12.21v194.2"/><path class="e" d="M16.22,28.3V222.5c0,4.42,1.69,8.84,5.06,12.21,3.37,3.37,7.79,5.06,12.21,5.06h0c4.42,0,8.84-1.69,12.21-5.06,3.37-3.37,5.06-7.79,5.06-12.21V84.4c0-4.42,1.69-8.84,5.06-12.21,3.37-3.37,7.79-5.06,12.21-5.06"/><line class="e" x1="50.74" y1="28.3" x2="50.74" y2="84.4"/><line class="e" x1="63.69" y1="239.77" x2="85.27" y2="239.77"/><line class="e" x1="180.21" y1="28.3" x2="180.21" y2="67.14"/><line class="e" x1="214.73" y1="28.3" x2="214.73" y2="67.14"/><line class="e" x1="119.79" y1="136.19" x2="249.26" y2="136.19"/><line class="e" x1="249.26" y1="222.5" x2="119.79" y2="222.5"/></svg>