<?xml version="1.0" encoding="UTF-8"?><svg id="a" xmlns="http://www.w3.org/2000/svg" viewBox="0 0 300 300"><defs><style>.b{fill:none;stroke:#34303d;stroke-miterlimit:10;stroke-width:7.99px;}.c{fill:#ff5f5c;}.d{fill:#ffc252;}</style></defs><g><path class="b" d="M209.92,196.94H34.16c-1.02,0-2.04,.39-2.82,1.17-.78,.78-1.17,1.8-1.17,2.82v71.9c0,1.02,.39,2.04,1.17,2.82s1.8,1.17,2.82,1.17H209.92"/><g><g><line class="b" x1="42.15" y1="212.92" x2="50.14" y2="212.92"/><line class="b" x1="58.12" y1="212.92" x2="66.11" y2="212.92"/><line class="b" x1="74.1" y1="212.92" x2="82.09" y2="212.92"/><line class="b" x1="90.08" y1="212.92" x2="98.07" y2="212.92"/><line class="b" x1="106.06" y1="212.92" x2="114.05" y2="212.92"/><line class="b" x1="122.04" y1="212.92" x2="130.03" y2="212.92"/><line class="b" x1="138.02" y1="212.92" x2="146.01" y2="212.92"/><line class="b" x1="153.99" y1="212.92" x2="161.98" y2="212.92"/><line class="b" x1="169.97" y1="212.92" x2="177.96" y2="212.92"/><line class="b" x1="185.95" y1="212.92" x2="193.94" y2="212.92"/><line class="b" x1="201.93" y1="212.92" x2="209.92" y2="212.92"/></g><g><line class="b" x1="42.15" y1="244.88" x2="50.14" y2="244.88"/><line class="b" x1="58.12" y1="244.88" x2="66.11" y2="244.88"/><line class="b" x1="74.1" y1="244.88" x2="82.09" y2="244.88"/><line class="b" x1="90.08" y1="244.88" x2="98.07" y2="244.88"/><line class="b" x1="106.06" y1="244.88" x2="114.05" y2="244.88"/><line class="b" x1="122.04" y1="244.88" x2="130.03" y2="244.88"/><line class="b" x1="138.02" y1="244.88" x2="146.01" y2="244.88"/><line class="b" x1="153.99" y1="244.88" x2="161.98" y2="244.88"/><line class="b" x1="169.97" y1="244.88" x2="177.96" y2="244.88"/><line class="b" x1="185.95" y1="244.88" x2="193.94" y2="244.88"/><line class="b" x1="201.93" y1="244.88" x2="209.92" y2="244.88"/></g><g><line class="b" x1="50.14" y1="228.9" x2="58.12" y2="228.9"/><line class="b" x1="66.11" y1="228.9" x2="74.1" y2="228.9"/><line class="b" x1="82.09" y1="228.9" x2="90.08" y2="228.9"/><line class="b" x1="98.07" y1="228.9" x2="106.06" y2="228.9"/><line class="b" x1="114.05" y1="228.9" x2="122.04" y2="228.9"/><line class="b" x1="130.03" y1="228.9" x2="138.02" y2="228.9"/><line class="b" x1="146.01" y1="228.9" x2="153.99" y2="228.9"/><line class="b" x1="161.98" y1="228.9" x2="169.97" y2="228.9"/><line class="b" x1="177.96" y1="228.9" x2="185.95" y2="228.9"/><line class="b" x1="193.94" y1="228.9" x2="201.93" y2="228.9"/></g><g><line class="b" x1="50.14" y1="260.86" x2="58.12" y2="260.86"/><line class="b" x1="66.11" y1="260.86" x2="74.1" y2="260.86"/><line class="b" x1="82.09" y1="260.86" x2="90.08" y2="260.86"/><line class="b" x1="98.07" y1="260.86" x2="201.93" y2="260.86"/></g></g></g><g><rect class="c" x="26.17" y="49.14" width="19.97" height="135.82"/><rect class="c" x="253.86" y="49.14" width="19.97" height="135.82"/><polyline class="b" points="46.14 184.96 46.14 33.17 134.02 33.17 150 49.14 165.98 33.17 253.86 33.17 253.86 184.96"/><line class="b" x1="150" y1="49.14" x2="150" y2="184.96"/><g><line class="b" x1="62.12" y1="101.07" x2="134.02" y2="101.07"/><line class="b" x1="62.12" y1="117.05" x2="134.02" y2="117.05"/><line class="b" x1="62.12" y1="133.03" x2="134.02" y2="133.03"/><line class="b" x1="62.12" y1="149.01" x2="134.02" y2="149.01"/><line class="b" x1="62.12" y1="164.99" x2="134.02" y2="164.99"/><line class="b" x1="62.12" y1="180.96" x2="94.08" y2="180.96"/></g><g><line class="b" x1="165.98" y1="85.1" x2="237.88" y2="85.1"/><line class="b" x1="165.98" y1="69.12" x2="237.88" y2="69.12"/><line class="b" x1="165.98" y1="53.14" x2="205.92" y2="53.14"/><line class="b" x1="165.98" y1="101.07" x2="237.88" y2="101.07"/><line class="b" x1="165.98" y1="117.05" x2="237.88" y2="117.05"/><line class="b" x1="217.91" y1="133.03" x2="237.88" y2="133.03"/><line class="b" x1="217.91" y1="149.01" x2="237.88" y2="149.01"/><line class="b" x1="165.98" y1="164.99" x2="237.88" y2="164.99"/><line class="b" x1="165.98" y1="180.96" x2="237.88" y2="180.96"/></g><rect class="d" x="62.12" y="49.14" width="71.9" height="39.95"/><rect class="c" x="165.98" y="129.04" width="43.94" height="23.97"/></g><g><rect class="b" x="221.9" y="196.94" width="47.93" height="79.89" rx="11.98" ry="11.98"/><line class="b" x1="241.88" y1="212.92" x2="249.86" y2="212.92"/><line class="b" x1="221.9" y1="228.9" x2="269.84" y2="228.9"/></g></svg>