<?xml version="1.0" encoding="UTF-8"?><svg id="a" xmlns="http://www.w3.org/2000/svg" viewBox="0 0 300 300"><defs><style>.b,.c{fill:none;stroke:#34303d;stroke-linejoin:round;stroke-width:9.31px;}.d{fill:#57dcf2;}.c{stroke-dasharray:0 9.31;}.e{fill:#ff5f5c;}</style></defs><circle class="d" cx="150" cy="150" r="83.76"/><g><circle class="e" cx="38.32" cy="89.51" r="18.61"/><circle class="e" cx="261.68" cy="89.51" r="18.61"/><circle class="e" cx="150" cy="275.64" r="18.61"/></g><g><circle class="b" cx="150" cy="24.36" r="18.61"/><circle class="b" cx="38.32" cy="89.51" r="18.61"/><circle class="b" cx="38.32" cy="210.49" r="18.61"/><circle class="b" cx="261.68" cy="89.51" r="18.61"/><circle class="b" cx="261.68" cy="210.49" r="18.61"/><circle class="b" cx="150" cy="275.64" r="18.61"/></g><g><circle class="b" cx="150" cy="150" r="60.49"/><path class="b" d="M131.39,168.61c2.53,23.24,9.18,40.67,17.7,41.83,.3,.05,.6,.05,.91,.05s.6,0,.91-.05c8.52-1.16,15.18-18.59,17.7-41.83"/><path class="b" d="M131.39,131.39c2.53-23.24,9.18-40.67,17.7-41.83,.3-.05,.6-.05,.91-.05s.6,0,.91,.05c8.52,1.16,15.18,18.59,17.7,41.83"/><ellipse class="b" cx="150" cy="150" rx="60.49" ry="18.61"/><line class="b" x1="136.04" y1="150" x2="126.73" y2="150"/><line class="b" x1="154.65" y1="150" x2="145.35" y2="150"/><line class="b" x1="173.27" y1="150" x2="163.96" y2="150"/></g><g><line class="b" x1="150" y1="42.97" x2="150" y2="89.51"/><line class="b" x1="54.7" y1="201.6" x2="98.81" y2="177.92"/><line class="b" x1="245.3" y1="98.35" x2="201.19" y2="122.08"/><line class="b" x1="54.7" y1="98.35" x2="98.81" y2="122.08"/><line class="b" x1="201.19" y1="177.92" x2="245.3" y2="201.65"/><line class="b" x1="150" y1="210.49" x2="150" y2="257.03"/></g><g><g><line class="c" x1="38.32" y1="126.73" x2="38.32" y2="136.04"/><line class="c" x1="38.32" y1="145.35" x2="38.32" y2="154.65"/><line class="c" x1="38.32" y1="163.96" x2="38.32" y2="173.27"/></g><g><line class="c" x1="261.67" y1="173.27" x2="261.67" y2="163.96"/><line class="c" x1="261.67" y1="154.66" x2="261.67" y2="145.35"/><line class="c" x1="261.67" y1="136.04" x2="261.67" y2="126.74"/></g><g><line class="c" x1="70.89" y1="66.24" x2="80.2" y2="66.24"/><line class="c" x1="89.51" y1="52.28" x2="98.81" y2="52.28"/><line class="c" x1="108.12" y1="38.32" x2="117.43" y2="38.32"/></g><g><line class="c" x1="229.11" y1="66.24" x2="219.8" y2="66.24"/><line class="c" x1="210.49" y1="52.28" x2="201.19" y2="52.28"/><line class="c" x1="191.88" y1="38.32" x2="182.57" y2="38.32"/></g><g><line class="c" x1="70.89" y1="229.11" x2="80.2" y2="229.11"/><line class="c" x1="89.51" y1="243.07" x2="98.81" y2="243.07"/><line class="c" x1="108.12" y1="257.03" x2="117.43" y2="257.03"/></g><g><line class="c" x1="229.11" y1="229.11" x2="219.8" y2="229.11"/><line class="c" x1="210.49" y1="243.07" x2="201.19" y2="243.07"/><line class="c" x1="191.88" y1="257.03" x2="182.57" y2="257.03"/></g></g><g><line class="b" x1="145.35" y1="24.36" x2="154.65" y2="24.36"/><line class="b" x1="145.35" y1="275.64" x2="154.65" y2="275.64"/><line class="b" x1="33.67" y1="89.51" x2="42.97" y2="89.51"/><line class="b" x1="257.03" y1="89.51" x2="266.33" y2="89.51"/><line class="b" x1="33.67" y1="210.49" x2="42.97" y2="210.49"/><line class="b" x1="257.03" y1="210.49" x2="266.33" y2="210.49"/></g></svg>