<?xml version="1.0" encoding="UTF-8"?><svg id="a" xmlns="http://www.w3.org/2000/svg" viewBox="0 0 300 300"><defs><style>.b{fill:#57dcf2;}.c{fill:none;stroke:#34303d;stroke-miterlimit:10;stroke-width:8.11px;}.d{fill:#ff5f5c;}.e{fill:#ffc252;}</style></defs><rect class="e" x="66.9" y="56.77" width="178.36" height="56.75"/><rect class="e" x="66.9" y="218.91" width="178.36" height="56.75"/><g><rect class="d" x="245.26" y="133.79" width="20.27" height="40.54"/><polyline class="c" points="245.26 89.2 261.47 89.2 261.47 121.62 245.26 121.62"/><polyline class="c" points="50.69 40.55 261.47 40.55 261.47 72.98 245.26 72.98"/></g><path class="c" d="M245.26,56.77H50.69c-4.15,0-8.3-1.58-11.46-4.75-3.17-3.17-4.75-7.32-4.75-11.47v218.9c0,4.15,1.58,8.3,4.75,11.46,3.17,3.17,7.32,4.75,11.46,4.75H245.26V56.77Z"/><path class="c" d="M34.47,40.55c0-4.15,1.58-8.3,4.75-11.46,3.17-3.17,7.32-4.75,11.46-4.75H249.31"/><line class="c" x1="66.9" y1="275.66" x2="66.9" y2="56.77"/><g><line class="c" x1="79.06" y1="89.2" x2="233.1" y2="89.2"/><line class="c" x1="79.06" y1="72.98" x2="115.54" y2="72.98"/></g><g><line class="c" x1="192.56" y1="259.45" x2="233.1" y2="259.45"/><line class="c" x1="168.24" y1="259.45" x2="184.46" y2="259.45"/></g><g><line class="c" x1="50.69" y1="218.91" x2="50.69" y2="210.8"/><line class="c" x1="50.69" y1="202.7" x2="50.69" y2="194.59"/><line class="c" x1="50.69" y1="186.48" x2="50.69" y2="178.38"/><line class="c" x1="50.69" y1="170.27" x2="50.69" y2="162.16"/><line class="c" x1="50.69" y1="154.05" x2="50.69" y2="145.95"/><line class="c" x1="50.69" y1="137.84" x2="50.69" y2="129.73"/><line class="c" x1="50.69" y1="121.62" x2="50.69" y2="113.52"/></g><polygon class="b" points="158 122.28 172.03 150.71 203.4 155.27 180.7 177.4 186.06 208.64 158 193.89 129.94 208.64 135.3 177.4 112.6 155.27 143.97 150.71 158 122.28"/></svg>