<?xml version="1.0" encoding="UTF-8"?><svg id="a" xmlns="http://www.w3.org/2000/svg" viewBox="0 0 300 300"><defs><style>.b{fill:#57dcf2;}.c{fill:none;stroke:#34303d;stroke-miterlimit:10;stroke-width:8.56px;}.d{fill:#ffc252;}</style></defs><g><path class="c" d="M51.52,107.18h-8.56c-2.19,0-4.38,.84-6.05,2.51-1.67,1.67-2.51,3.86-2.51,6.05V252.76"/><path class="c" d="M248.48,107.18h8.56c2.19,0,4.38,.84,6.05,2.51,1.67,1.67,2.51,3.86,2.51,6.05V252.76"/><path class="c" d="M184.25,252.76l-8.56,8.56h-51.38l-8.56-8.56H17.27v8.56c0,4.38,1.67,8.76,5.02,12.11,3.34,3.35,7.73,5.02,12.11,5.02h231.21c4.38,0,8.77-1.67,12.11-5.02,3.35-3.34,5.02-7.73,5.02-12.11v-8.56h-98.48Z"/><g><polygon class="b" points="64.37 188.53 77.21 188.53 77.21 124.31 64.37 124.31 51.52 124.31 51.52 222.79 64.37 222.79 64.37 188.53"/><polygon class="b" points="235.63 124.31 222.79 124.31 222.79 188.53 235.63 188.53 235.63 222.79 248.48 222.79 248.48 124.31 235.63 124.31"/></g><g><path class="b" d="M120.03,192.82v-55.66c0-3.29-1.25-6.57-3.76-9.08-2.51-2.51-5.8-3.76-9.08-3.76s-6.57,1.25-9.08,3.76c-2.51,2.51-3.76,5.8-3.76,9.08v55.66"/><path class="b" d="M162.84,192.82v-55.66c0-3.29-1.25-6.57-3.76-9.08-2.51-2.51-5.8-3.76-9.08-3.76s-6.57,1.25-9.08,3.76c-2.51,2.51-3.76,5.8-3.76,9.08v55.66"/><path class="b" d="M205.66,192.82v-55.66c0-3.29-1.25-6.57-3.76-9.08-2.51-2.51-5.8-3.76-9.08-3.76s-6.57,1.25-9.08,3.76c-2.51,2.51-3.76,5.8-3.76,9.08v55.66"/></g></g><g><rect class="d" x="60.09" y="222.79" width="184.11" height="12.84"/><polyline class="c" points="244.2 235.63 244.2 222.79 55.8 222.79 55.8 235.63"/><line class="c" x1="64.37" y1="205.66" x2="235.63" y2="205.66"/><g><path class="c" d="M120.03,192.82v-55.66c0-3.29-1.25-6.57-3.76-9.08-2.51-2.51-5.8-3.76-9.08-3.76s-6.57,1.25-9.08,3.76c-2.51,2.51-3.76,5.8-3.76,9.08v55.66"/><path class="c" d="M162.84,192.82v-55.66c0-3.29-1.25-6.57-3.76-9.08-2.51-2.51-5.8-3.76-9.08-3.76s-6.57,1.25-9.08,3.76c-2.51,2.51-3.76,5.8-3.76,9.08v55.66"/><path class="c" d="M205.66,192.82v-55.66c0-3.29-1.25-6.57-3.76-9.08-2.51-2.51-5.8-3.76-9.08-3.76s-6.57,1.25-9.08,3.76c-2.51,2.51-3.76,5.8-3.76,9.08v55.66"/></g><polyline class="c" points="64.37 188.53 77.21 188.53 77.21 124.31 64.37 124.31 64.37 107.18 235.63 107.18 235.63 124.31 222.79 124.31 222.79 188.53 235.63 188.53"/><polyline class="c" points="235.63 94.34 235.63 81.49 150 21.55 64.37 81.49 64.37 94.34"/><polygon class="d" points="150 42.96 90.06 81.49 90.06 94.34 209.94 94.34 209.94 81.49 150 42.96"/><g><line class="c" x1="128.59" y1="81.49" x2="137.16" y2="81.49"/><line class="c" x1="145.72" y1="81.49" x2="154.28" y2="81.49"/><line class="c" x1="162.84" y1="81.49" x2="171.41" y2="81.49"/></g></g></svg>