<?xml version="1.0" encoding="UTF-8"?><svg id="a" xmlns="http://www.w3.org/2000/svg" viewBox="0 0 300 300"><defs><style>.b{fill:#e83c3c;}.c{fill:#ff5f5c;}.d{fill:none;stroke:#34303d;stroke-miterlimit:10;stroke-width:8.43px;}</style></defs><g><g><path class="d" d="M273.58,138.08c-3.29-3.29-7.6-4.94-11.92-4.94h-42.14c-4.31,0-8.63,1.65-11.92,4.94-3.29,3.29-4.94,7.61-4.94,11.92s1.65,8.63,4.94,11.92c3.29,3.29,7.6,4.94,11.92,4.94h42.14c4.31,0,8.63-1.65,11.92-4.94,3.29-3.29,4.94-7.61,4.94-11.92s-1.65-8.63-4.94-11.92Z"/><path class="d" d="M277.79,171.79c-3.29-3.29-7.6-4.94-11.92-4.94h-50.56c-4.31,0-8.63,1.65-11.92,4.94-3.29,3.29-4.94,7.61-4.94,11.92s1.65,8.63,4.94,11.92c3.29,3.29,7.6,4.94,11.92,4.94h50.56c4.31,0,8.63-1.65,11.92-4.94,3.29-3.29,4.94-7.61,4.94-11.92s-1.65-8.63-4.94-11.92Z"/><path class="d" d="M269.36,205.5c-3.29-3.29-7.6-4.94-11.92-4.94h-37.92c-4.31,0-8.63,1.65-11.92,4.94-3.29,3.29-4.94,7.61-4.94,11.92s1.65,8.63,4.94,11.92c3.29,3.29,7.6,4.94,11.92,4.94h37.92c4.31,0,8.63-1.65,11.92-4.94,3.29-3.29,4.94-7.61,4.94-11.92s-1.65-8.63-4.94-11.92Z"/><path class="d" d="M265.15,239.21c-3.29-3.29-7.6-4.94-11.92-4.94h-29.5c-4.31,0-8.63,1.65-11.92,4.94-3.29,3.29-4.94,7.61-4.94,11.92s1.65,8.62,4.94,11.92c3.29,3.29,7.6,4.94,11.92,4.94h29.5c4.31,0,8.63-1.65,11.92-4.94,3.29-3.29,4.94-7.6,4.94-11.92s-1.65-8.63-4.94-11.92Z"/></g><polyline class="d" points="198.46 267.98 126.82 267.98 109.97 259.55 101.54 259.55"/><path class="d" d="M88.9,133.15h16.85l54.78-58.99,12.64-29.5c0-3.23,1.23-6.47,3.7-8.94,2.47-2.47,5.7-3.7,8.94-3.7s6.47,1.23,8.94,3.7c2.47,2.47,3.7,5.7,3.7,8.94v29.5l-16.85,58.99h46.35"/><path class="d" d="M101.54,221.63h8.43c32.58,0,58.99-26.41,58.99-58.99"/></g><g><rect class="b" x="17.27" y="133.15" width="42.14" height="134.84"/><rect class="c" x="59.41" y="133.15" width="29.5" height="134.84"/><polyline class="d" points="17.27 133.15 88.9 133.15 88.9 267.98 17.27 267.98"/><line class="d" x1="76.26" y1="251.13" x2="67.83" y2="251.13"/><line class="d" x1="76.26" y1="234.27" x2="67.83" y2="234.27"/></g></svg>