<?xml version="1.0" encoding="UTF-8"?><svg id="a" xmlns="http://www.w3.org/2000/svg" viewBox="0 0 300 300"><defs><style>.b{stroke-miterlimit:10;}.b,.c{fill:none;stroke:#34303d;stroke-width:9.04px;}.d{fill:#57dcf2;}.e{fill:#ffc252;}.c{stroke-linejoin:round;}</style></defs><g><path class="d" d="M204.24,186.16c-5.79-1.88-22.6-9.04-22.6-9.04v31.64l-31.64-9.04-31.64,9.04v-31.64s-16.81,7.16-22.6,9.04c-21.19,6.89-36.16,18.08-36.16,40.68v45.2H240.4v-45.2c0-22.6-14.97-33.79-36.16-40.68Z"/><path class="e" d="M178.77,57.96c-7.95-7.95-18.35-11.92-28.77-11.92s-20.82,3.97-28.77,11.92c-7.94,7.94-11.91,18.35-11.91,28.76v13.56c0-3.47,1.32-6.94,3.97-9.59,2.65-2.65,6.12-3.97,9.59-3.97h31.64l9.04-9.04c0,2.31,.88,4.63,2.65,6.39,1.77,1.77,4.08,2.65,6.39,2.65h4.52c3.47,0,6.94,1.32,9.59,3.97s3.97,6.12,3.97,9.59v-13.56c0-10.41-3.97-20.82-11.91-28.76Z"/><g><path class="b" d="M59.6,272.04v-45.2c0-22.6,13.56-31.64,36.16-40.68,9.38-3.75,22.6-9.04,22.6-9.04"/><path class="b" d="M240.4,272.04v-45.2c0-22.6-13.56-31.64-36.16-40.68-9.38-3.75-22.6-9.04-22.6-9.04"/><line class="b" x1="127.4" y1="145.48" x2="127.4" y2="168.08"/><line class="b" x1="172.6" y1="168.08" x2="172.6" y2="145.48"/></g><g><line class="b" x1="91.24" y1="272.04" x2="91.24" y2="240.4"/><line class="b" x1="208.76" y1="272.04" x2="208.76" y2="240.4"/></g><g><g><line class="b" x1="150" y1="222.32" x2="150" y2="231.36"/><line class="b" x1="150" y1="240.4" x2="150" y2="249.44"/></g><polyline class="b" points="136.44 204.24 118.36 208.76 118.36 177.12 127.4 168.08 150 190.68 172.6 168.08 181.64 177.12 181.64 208.76 163.56 204.24"/><line class="b" x1="150" y1="190.68" x2="150" y2="213.28"/></g><g><path class="c" d="M190.68,100.28c0-3.47-1.32-6.94-3.97-9.59s-6.12-3.97-9.59-3.97h-4.52c-2.31,0-4.63-.88-6.39-2.65-1.77-1.77-2.65-4.08-2.65-6.39l-9.04,9.04h-31.64c-3.47,0-6.94,1.32-9.59,3.97-2.65,2.65-3.97,6.12-3.97,9.59"/><path class="c" d="M109.32,86.72c0-10.41,3.97-20.82,11.91-28.76,7.95-7.95,18.35-11.92,28.77-11.92s20.82,3.97,28.77,11.92c7.94,7.94,11.91,18.35,11.91,28.76v22.6c0,1.16-.44,2.31-1.32,3.2-.88,.88-2.04,1.32-3.2,1.32,0,18.6-12.06,40.68-36.16,40.68s-36.16-22.08-36.16-40.68c-1.16,0-2.31-.44-3.2-1.32-.88-.88-1.32-2.04-1.32-3.2v-22.6Z"/></g></g><g><path class="b" d="M290.12,222.32v-40.68c0-5.78-2.21-11.57-6.62-15.98-4.41-4.41-10.2-6.62-15.98-6.62l-18.08,18.08-18.08-18.08c-5.78,0-11.57,2.21-15.98,6.62-4.41,4.41-6.62,10.2-6.62,15.98v9.04"/><line class="b" x1="249.44" y1="190.68" x2="249.44" y2="199.72"/><circle class="b" cx="249.44" cy="122.88" r="22.6"/></g><g><path class="b" d="M9.88,222.32v-40.68c0-5.78,2.21-11.57,6.62-15.98,4.41-4.41,10.2-6.62,15.98-6.62l18.08,18.08,18.08-18.08c5.78,0,11.57,2.21,15.98,6.62,4.41,4.41,6.62,10.2,6.62,15.98v9.04"/><line class="b" x1="50.56" y1="190.68" x2="50.56" y2="199.72"/><circle class="b" cx="50.56" cy="122.88" r="22.6"/></g></svg>