<?xml version="1.0" encoding="UTF-8"?><svg id="a" xmlns="http://www.w3.org/2000/svg" viewBox="0 0 300 300"><defs><style>.b{stroke-linejoin:round;}.b,.c{stroke:#34303d;}.b,.c,.d{fill:none;stroke-width:8.64px;}.e{fill:#abf1fc;}.c,.d{stroke-miterlimit:10;}.f{fill:#57dcf2;}.d{stroke:#fff;}.g{fill:#ff5f5c;}</style></defs><g><path class="c" d="M111.13,83.56c0-21.47,17.4-38.87,38.87-38.87"/><path class="b" d="M72.26,178.57h-21.59c-19.08,0-34.55-15.47-34.55-34.55s15.47-34.55,34.55-34.55c.39,0,.76,.05,1.15,.06-.73-2.78-1.15-5.69-1.15-8.7,0-19.08,15.47-34.55,34.55-34.55,3.8,0,7.44,.64,10.86,1.77,6.74-23.46,28.3-40.64,53.93-40.64s47.19,17.18,53.93,40.64c3.42-1.13,7.06-1.77,10.86-1.77,19.08,0,34.55,15.47,34.55,34.55,0,3.01-.43,5.91-1.15,8.7,.38-.01,.76-.06,1.15-.06,19.08,0,34.55,15.47,34.55,34.55s-15.47,34.55-34.55,34.55h-21.59"/></g><g><path class="f" d="M98.18,247.67h116.61V109.47H98.18c-3.32,0-6.63,1.27-9.16,3.8s-3.8,5.85-3.8,9.16v138.2c0-3.32,1.27-6.63,3.8-9.16s5.85-3.8,9.16-3.8Z"/><path class="e" d="M106.81,109.47h-8.64c-3.32,0-6.63,1.27-9.16,3.8s-3.8,5.85-3.8,9.16v138.2c0-3.32,1.27-6.63,3.8-9.16s5.85-3.8,9.16-3.8h8.64V109.47Z"/><path class="c" d="M214.78,260.63v12.96H98.18c-3.32,0-6.63-1.27-9.16-3.8s-3.8-5.85-3.8-9.16h0"/><g><line class="c" x1="137.04" y1="161.3" x2="180.23" y2="161.3"/><line class="c" x1="137.04" y1="178.57" x2="180.23" y2="178.57"/><line class="c" x1="137.04" y1="195.85" x2="180.23" y2="195.85"/></g><rect class="d" x="119.77" y="126.75" width="77.74" height="103.65"/><path class="c" d="M98.18,109.47c-3.32,0-6.63,1.27-9.16,3.8s-3.8,5.85-3.8,9.16v138.2c0-3.32,1.27-6.63,3.8-9.16s5.85-3.8,9.16-3.8h116.61V109.47H98.18Z"/><rect class="g" x="106.81" y="260.63" width="17.27" height="25.91"/></g><g><line class="c" x1="232.06" y1="200.17" x2="232.06" y2="208.8"/><line class="c" x1="232.06" y1="217.44" x2="232.06" y2="226.08"/><line class="c" x1="232.06" y1="234.72" x2="232.06" y2="243.35"/></g><g><line class="c" x1="67.94" y1="200.17" x2="67.94" y2="208.8"/><line class="c" x1="67.94" y1="217.44" x2="67.94" y2="226.08"/><line class="c" x1="67.94" y1="234.72" x2="67.94" y2="243.35"/></g></svg>