<?xml version="1.0" encoding="UTF-8" standalone="no"?>
<!-- Created with Inkscape (http://www.inkscape.org/) -->

<svg
   width="800"
   height="800"
   viewBox="0 0 211.66666 211.66666"
   version="1.1"
   id="svg5"
   xml:space="preserve"
   inkscape:version="1.2.1 (9c6d41e410, 2022-07-14)"
   sodipodi:docname="sc_characteristic.svg"
   xmlns:inkscape="http://www.inkscape.org/namespaces/inkscape"
   xmlns:sodipodi="http://sodipodi.sourceforge.net/DTD/sodipodi-0.dtd"
   xmlns="http://www.w3.org/2000/svg"
   xmlns:svg="http://www.w3.org/2000/svg"><sodipodi:namedview
     id="namedview7"
     pagecolor="#ffffff"
     bordercolor="#000000"
     borderopacity="0.25"
     inkscape:showpageshadow="2"
     inkscape:pageopacity="0.0"
     inkscape:pagecheckerboard="0"
     inkscape:deskcolor="#d1d1d1"
     inkscape:document-units="mm"
     showgrid="false"
     inkscape:zoom="1.1360799"
     inkscape:cx="589.30714"
     inkscape:cy="388.17692"
     inkscape:window-width="1920"
     inkscape:window-height="1017"
     inkscape:window-x="-8"
     inkscape:window-y="-8"
     inkscape:window-maximized="1"
     inkscape:current-layer="layer1" /><defs
     id="defs2"><style
       id="style9">.cls-1,.cls-2,.cls-3,.cls-4,.cls-5,.cls-6,.cls-7,.cls-8{fill:none;stroke-width:8px;}.cls-1,.cls-11{stroke:#3fa9f5;}.cls-1,.cls-11,.cls-13,.cls-17,.cls-19,.cls-2,.cls-21,.cls-23,.cls-25,.cls-3,.cls-4,.cls-5,.cls-6,.cls-7,.cls-8,.cls-9{stroke-miterlimit:10;}.cls-17,.cls-2{stroke:#22ac38;}.cls-19,.cls-3{stroke:#f15a24;}.cls-21,.cls-4{stroke:#93278f;}.cls-23,.cls-5{stroke:#005995;}.cls-6,.cls-9{stroke:#e5005a;}.cls-25,.cls-7{stroke:#007f3a;}.cls-13,.cls-8{stroke:#e08300;}.cls-11,.cls-13,.cls-16,.cls-17,.cls-19,.cls-21,.cls-23,.cls-25,.cls-9{fill:#fff;}.cls-11,.cls-13,.cls-17,.cls-19,.cls-21,.cls-23,.cls-25,.cls-9{stroke-width:6px;}.cls-10{fill:#e5005a;}.cls-12{fill:#3fa9f5;}.cls-14{fill:#e08300;}.cls-15{fill:#d32b12;}.cls-18{fill:#22ac38;}.cls-20{fill:#f15a24;}.cls-22{fill:#93278f;}.cls-24{fill:#005995;}.cls-26{fill:#007f3a;}</style></defs><g
     inkscape:label="圖層 1"
     inkscape:groupmode="layer"
     id="layer1"><line
       class="cls-1"
       x1="105.83334"
       y1="105.83334"
       x2="105.83334"
       y2="26.196398"
       id="line13"
       style="stroke-width:2;stroke-dasharray:none" /><line
       class="cls-2"
       x1="105.83334"
       y1="105.83334"
       x2="49.522064"
       y2="49.522064"
       id="line15"
       style="stroke-width:2;stroke-dasharray:none" /><line
       class="cls-3"
       x1="105.83334"
       y1="105.83334"
       x2="26.196398"
       y2="105.83334"
       id="line17"
       style="stroke-width:2;stroke-dasharray:none" /><line
       class="cls-4"
       x1="105.83334"
       y1="105.83334"
       x2="49.522064"
       y2="162.14461"
       id="line19"
       style="stroke-width:2;stroke-dasharray:none" /><line
       class="cls-5"
       x1="105.83334"
       y1="105.83334"
       x2="105.83334"
       y2="185.47028"
       id="line21"
       style="stroke-width:2;stroke-dasharray:none" /><line
       class="cls-6"
       x1="105.83334"
       y1="105.83334"
       x2="162.14461"
       y2="162.14461"
       id="line23"
       style="stroke-width:2;stroke-dasharray:none" /><line
       class="cls-7"
       x1="105.83334"
       y1="105.83334"
       x2="185.47028"
       y2="105.83334"
       id="line25"
       style="stroke-width:2;stroke-dasharray:none" /><line
       class="cls-8"
       x1="105.83334"
       y1="105.83334"
       x2="162.14461"
       y2="49.522064"
       id="line27"
       style="stroke-width:2;stroke-dasharray:none" /><circle
       class="cls-9"
       cx="162.14461"
       cy="162.14461"
       r="21.801666"
       id="circle29"
       style="stroke-width:2;stroke-dasharray:none" /><circle
       class="cls-11"
       cx="105.83334"
       cy="26.196398"
       r="21.801666"
       id="circle35"
       style="stroke-width:2;stroke-dasharray:none" /><circle
       class="cls-13"
       cx="162.14461"
       cy="49.522064"
       r="21.801666"
       id="circle41"
       style="stroke-width:2;stroke-dasharray:none" /><circle
       class="cls-15"
       cx="105.83334"
       cy="105.83334"
       r="39.793331"
       id="circle47"
       style="stroke-width:0.264583" /><path
       class="cls-16"
       d="M 88.974085,89.291585 H 85.17996 l 0.841375,0.3175 a 10.546292,10.546292 0 0 1 -1.524,1.825625 h 3.704166 v 7.953374 c 0,1.936746 -1.7145,2.301876 -4.365625,1.254126 l 0.142875,-0.841376 c 2.0955,0.206376 2.270125,0.142875 2.270125,-0.79375 V 94.985418 H 84.79896 c -1.778,0 -2.159,-0.3175 -2.159,-1.571625 V 92.41896 h -1.000125 c -0.1905,1.349374 -1.190625,2.412999 -2.57175,3.016249 h 6.085416 v 3.58775 h -6.111875 v -3.58775 a 5.2043541,5.2043541 0 0 1 -1.127125,0.365125 v 5.381626 h -1.9685 v -9.74725 h 3.349625 c -0.301625,-0.66675 -0.650875,-1.349375 -0.98425,-1.93675 l 0.264584,-0.206375 h -3.508375 v -0.98425 h 6.842125 c -0.746125,-0.47625 -1.603375,-0.98425 -2.238375,-1.322917 l 0.264583,-0.746125 a 13.869458,13.869458 0 0 1 3.730625,0.9525 l -0.60325,1.11125 h 5.9055 z m -9.11225,3.127375 h -1.93675 v 2.444749 c 1.27,-0.619125 1.80975,-1.201208 1.93675,-2.444749 z m 4.09575,-3.127375 h -4.41325 a 8.1094791,8.1094791 0 0 1 1.61925,1.68275 L 80.38571,91.43471 h 2.82575 a 16.999479,16.999479 0 0 0 0.746125,-2.143125 z m -3.1115,8.810624 h 2.524125 v -1.730375 h -2.524125 z m 5.408083,-5.683249 h -1.984375 v 0.619125 c 0,0.460374 0.174625,0.650874 0.809625,0.650874 h 1.17475 z"
       id="path49"
       style="stroke-width:0.264583" /><path
       class="cls-16"
       d="m 93.662501,94.022334 h 3.598333 v 7.175496 h -1.852083 v -4.233329 h -1.11125 c -0.0635,2.00025 -0.6985,3.704169 -3.063875,4.444999 l -0.34925,-0.71437 c 1.30175,-0.825504 1.55575,-2.047879 1.5875,-3.730629 h -1.508125 v -0.9525 h 4.445 v -1.026583 h -3.545416 v -7.064375 h 1.799166 z m 7.572379,-0.777874 h -6.778629 v -6.143625 h 6.794499 z m -1.746254,-5.222875 h -3.291417 v 0.809625 h 3.302 z m 0,1.68275 h -3.291417 v 0.85725 h 3.302 z m 0,1.730375 h -3.291417 v 0.889 h 3.302 z m 5.413374,5.492749 h -1.42875 v 4.270371 h -1.82562 v -4.270371 h -1.36525 v 4.270371 h -1.852087 v -7.175496 h 3.555997 V 87.91046 h 1.80975 v 7.074958 h -3.50308 v 1.000125 h 4.61962 z"
       id="path51"
       style="stroke-width:0.264583" /><path
       class="cls-16"
       d="m 109.97671,90.60921 v 10.6045 h -1.80975 v -7.159626 a 9.696979,9.696979 0 0 1 -1.09538,1.30175 l -0.55562,-0.529166 c 1.2065,-1.920875 2.159,-5.572125 2.50825,-8.35025 l 2.01612,0.3175 a 22.534562,22.534562 0 0 1 -1.06362,3.815292 z m 10.36637,10.58333 a 13.731875,13.731875 0 0 1 -4.572,-1.09537 c -1.55575,0.66675 -3.34962,0.98425 -5.29166,1.12712 l -0.14288,-0.73025 a 16.03375,16.03375 0 0 0 4.07988,-1.158872 6.6648541,6.6648541 0 0 1 -1.36525,-1.222375 8.8079791,8.8079791 0 0 1 -2.36538,1.30175 l -0.3175,-0.619125 a 7.9851249,7.9851249 0 0 0 2.91042,-2.809875 c -0.23813,-0.15875 -0.36513,-0.41275 -0.36513,-0.85725 v -1.49225 h 1.32292 v 1.000125 c 0,0.333375 0.0794,0.492125 0.60325,0.508 a 10.027708,10.027708 0 0 0 1.69863,-0.01587 c 0.4445,-0.04762 0.47625,-0.22225 0.508,-1.058334 h 0.66675 c 0.3175,1.412875 0.14287,2.032 -0.85725,2.116667 a 16.139583,16.139583 0 0 1 -1.9685,0.04762 c -0.0952,0.142875 -0.1905,0.28575 -0.30163,0.428625 h 2.6035 l 0.39688,-0.238125 1.69862,0.873125 a 7.5141666,7.5141666 0 0 1 -1.85208,1.852083 18.618729,18.618729 0 0 0 3.47662,0.3175 z m -5.842,-13.05983 h -3.39725 v -0.889 h 9.017 v 0.889 h -3.85762 a 9.2127916,9.2127916 0 0 1 -0.74613,0.8255 h 3.57188 v 3.540125 h 1.47637 v 2.238374 h -1.17475 a 9.0249374,9.0249374 0 0 1 0.66675,0.841375 l -1.17475,0.73025 a 18.684875,18.684875 0 0 0 -1.05833,-2.25425 l 0.47625,-0.365125 a 6.5616666,6.5616666 0 0 1 0.65088,0.587375 V 93.33971 h -6.87917 v 0.682624 a 1.6457083,1.6457083 0 0 1 0.0635,-0.15875 l 0.60325,0.206375 a 6.8183124,6.8183124 0 0 1 -0.85725,2.587625 l -1.11125,-0.6985 a 7.3580624,7.3580624 0 0 0 0.92075,-1.2065 h -1.25413 v -2.254249 h 1.397 V 88.95821 h 2.57175 c 0.0318,-0.28575 0.0794,-0.5715 0.0953,-0.8255 z m 2.91042,1.603375 h -3.87879 v 0.460375 h 3.8735 z m -3.8735,1.603375 h 3.8735 v -0.492125 h -3.87879 z m 3.8735,1.158875 V 92.00621 h -3.87879 v 0.492125 z m -1.74625,6.127749 a 5.7441041,5.7441041 0 0 0 1.32292,-1.17475 h -3.13796 a 1.5875,1.5875 0 0 0 -0.17463,0.15875 9.7895832,9.7895832 0 0 0 1.98438,1.016 z m -1.22237,-4.6355 0.20637,-0.529166 a 11.549062,11.549062 0 0 1 2.032,0.624416 l -0.52917,1.000125 c -0.52916,-0.365125 -1.25412,-0.8255 -1.7145,-1.095375 z"
       id="path53"
       style="stroke-width:0.264583" /><path
       class="cls-16"
       d="m 130.175,95.022459 c -0.0635,0.333375 -0.127,0.66675 -0.20637,0.968375 h 5.69912 a 24.439562,24.439562 0 0 1 -0.49212,3.603625 c -0.30163,1.397001 -1.79388,2.365371 -5.31813,0.508001 l 0.23813,-0.809626 c 2.50825,0.492125 2.96862,0.41275 3.14325,-0.34925 0.11112,-0.529166 0.22225,-1.190625 0.30162,-1.952625 h -3.91054 c -1.0795,2.645834 -3.31788,3.984621 -6.74688,4.302121 l -0.1905,-0.8255 c 2.44475,-0.603246 4.0005,-1.619246 4.81013,-3.476621 h -4.23333 v -1.000125 h 4.58787 a 10.583333,10.583333 0 0 0 0.22225,-1.11125 l 1.98438,0.127 -0.52917,-0.529166 0.0953,-0.127 a 38.303729,38.303729 0 0 1 -6.36588,1.127125 l -0.28575,-1.49225 c 0.889,-0.01587 1.79388,-0.0635 2.68288,-0.111125 v -0.777875 h -2.0955 v -0.762 a 6.4108541,6.4108541 0 0 1 -0.635,0.127 l -0.20638,-0.66675 c 1.12713,-0.460375 1.61925,-0.904875 1.87325,-1.651 h -1.524 V 89.24396 h 2.57175 v -0.714375 h -2.159 v -0.85725 h 2.159 V 86.54521 h 1.85209 v 1.127125 h 2.06375 v 0.85725 h -2.06375 v 0.714375 h 2.413 v 0.889 h -1.42875 v 0.264583 c 0,0.3175 0.0794,0.333375 0.47625,0.333375 a 1.2673542,1.2673542 0 0 0 0.84137,-0.238125 l 0.508,0.85725 c -0.60325,0.381 -0.84137,0.4445 -1.80975,0.4445 a 1.9737916,1.9737916 0 0 1 -1.0795,-0.206375 v 0.635 h 2.14313 v 0.873125 h -2.14313 v 0.650875 c 0.84138,-0.0635 1.63513,-0.127 2.36538,-0.206375 l 0.0952,0.529166 a 5.5271458,5.5271458 0 0 0 1.05833,-2.555874 q -0.45244,-0.452438 -0.9525,-0.904875 l 0.39688,-0.587375 c 0.22225,0.111125 0.46037,0.22225 0.6985,0.365125 l 0.0476,-1.095375 h -1.05833 V 88.38671 h 1.05833 v -1.852084 h 1.69333 v 1.852084 h 2.20663 c -0.0159,2.270125 0.0476,4.7625 0.39687,5.079999 0.22225,0.22225 0.34925,-0.01587 0.3175,-2.000249 h 0.762 c 0.58738,3.365499 -0.30162,4.143374 -1.50812,3.603624 -0.762,-0.301625 -1.15888,-1.031875 -1.36525,-2.063749 l -0.73025,0.777874 c -0.26458,-0.34925 -0.52917,-0.682624 -0.8255,-1.000124 a 6.1542083,6.1542083 0 0 1 -1.89971,2.238374 z m -4.49792,-2.809874 V 91.21246 h 1.44463 a 1.3837708,1.3837708 0 0 1 -0.0635,-0.47625 v -0.60325 h -0.90488 c -0.26458,0.904875 -0.889,1.651 -2.20662,2.079625 z m 6.87917,-0.841375 c 0.33338,0.264583 0.65088,0.508 0.93663,0.762 -0.0794,-0.8255 -0.0953,-1.793875 -0.0953,-2.841625 h -0.60325 a 10.260542,10.260542 0 0 1 -0.23813,2.079625 z"
       id="path55"
       style="stroke-width:0.264583" /><path
       class="cls-16"
       d="m 85.079418,112.8739 v 1.75683 h 2.801937 v 0.48683 h -2.801937 v 1.9685 h 3.934354 v 0.52917 h -8.675687 v -0.52917 h 3.8735 v -1.9685 h -2.783417 v -0.48683 h 2.783417 v -1.75683 h -2.423584 v -0.28575 a 9.8319165,9.8319165 0 0 1 -1.852083,0.86783 l -0.148167,-0.33867 c 2.243667,-1.05833 3.704167,-2.71991 4.191,-3.8735 h -2.57175 v -0.48683 h 3.65125 c 0.5715,1.5875 2.286,2.95275 4.497917,3.67242 l -0.497417,0.9525 a 9.7710624,9.7710624 0 0 1 -1.5875,-0.87842 v 0.37042 z m 2.296583,-0.45509 a 7.3421874,7.3421874 0 0 1 -2.497666,-3.00566 c -0.455084,1.00541 -1.449917,2.11666 -2.815167,3.00566 z"
       id="path57"
       style="stroke-width:0.264583" /><path
       class="cls-16"
       d="m 94.742001,110.93715 c 0,0.56091 -0.02117,1.11125 -0.07408,1.66158 h 4.021666 c -0.08467,2.32833 -0.211666,3.50308 -0.359833,4.2545 -0.243417,1.28058 -1.404937,1.56633 -3.521604,0.43392 l 0.127,-0.35984 c 2.010833,0.42334 2.38125,0.37042 2.529417,-0.42333 a 30.427083,30.427083 0 0 0 0.293687,-3.43958 h -3.14325 c -0.28575,2.11666 -1.185333,4.03225 -3.84175,5.05883 l -0.148166,-0.32808 c 2.772833,-1.50284 3.174999,-3.70417 3.206749,-6.87917 h -2.910416 v -0.52917 h 4.73075 a 24.682979,24.682979 0 0 0 -1.4605,-2.08491 l 0.264583,-0.26459 a 12.133792,12.133792 0 0 1 2.010833,1.78859 l -0.645583,0.5715 h 4.071938 v 0.52916 z"
       id="path59"
       style="stroke-width:0.264583" /><path
       class="cls-16"
       d="m 103.39917,110.70431 v 7.34484 h -0.79375 v -5.86582 a 7.4215624,7.4215624 0 0 1 -1.38642,1.69334 l -0.23283,-0.26459 c 0.85725,-1.05833 1.92616,-3.35491 2.38125,-5.50333 l 0.89958,0.26458 a 16.843375,16.843375 0 0 1 -0.86783,2.33098 z m 7.10935,6.2865 v 0.48419 h -6.70719 v -0.47625 h 3.70417 a 36.179125,36.179125 0 0 0 0.91811,-5.32342 l 0.99483,0.21167 a 25.929166,25.929166 0 0 1 -1.46844,5.10381 z m -0.26458,-5.88433 h -6.20977 v -0.46567 h 6.19919 z m -5.46894,0.81227 0.34925,-0.11642 a 18.327687,18.327687 0 0 1 1.37583,4.42384 l -0.94191,0.16933 a 27.302354,27.302354 0 0 0 -0.78317,-4.47675 z m 2.286,-1.37583 c -0.29633,-0.67734 -0.79375,-1.5875 -1.143,-2.2225 l 0.26458,-0.23284 a 10.31875,10.31875 0 0 1 1.68275,1.91559 z"
       id="path61"
       style="stroke-width:0.264583" /><path
       class="cls-16"
       d="m 120.85902,111.8579 c 0,2.32833 -0.0741,4.28625 -0.1905,5.22816 -0.14817,1.18534 -1.18533,1.10067 -2.51619,0.39159 l 0.0952,-0.33867 c 1.32292,0.29633 1.61661,0.32808 1.69069,-0.43392 0.0741,-0.762 0.13758,-2.42358 0.13758,-4.40266 h -3.65918 a 6.8579999,6.8579999 0 0 1 -1.0795,1.13241 h 1.651 v -0.91016 h 0.75141 v 0.91016 h 1.70128 v 1.778 h -1.70128 v 0.96309 c 0.26459,-0.0318 0.52917,-0.0635 0.79375,-0.10584 -0.10583,-0.16933 -0.20108,-0.33866 -0.28575,-0.47625 l 0.24342,-0.23283 a 7.1622707,7.1622707 0 0 1 1.15094,1.32292 l -0.57944,0.41275 c -0.0979,-0.22225 -0.22225,-0.47625 -0.36248,-0.73025 a 19.248437,19.248437 0 0 1 -3.62744,0.79375 l -0.1905,-0.79375 c 0.70909,0 1.42875,-0.0635 2.11667,-0.11642 v -1.05833 h -1.69333 v -1.74625 a 6.5087499,6.5087499 0 0 1 -0.55034,0.39158 l -0.17991,-0.26458 c 0,0.26458 0.0212,0.5715 0.0212,0.86783 0,1.75683 -0.16933,3.50308 -1.397,3.50308 -0.48683,0 -0.97366,-0.29633 -1.38641,-0.65616 l 0.13758,-0.3175 a 3.3760833,3.3760833 0 0 0 1.02658,0.28575 c 0.6985,0 0.85725,-1.56634 0.85725,-2.99509 q 0,-0.66675 -0.0317,-1.23825 a 7.6729166,7.6729166 0 0 1 -1.97908,2.40242 l -0.22225,-0.26458 a 9.5726249,9.5726249 0 0 0 2.01083,-3.46075 5.9928124,5.9928124 0 0 0 -0.30691,-0.93134 6.8791666,6.8791666 0 0 1 -1.44992,1.32292 l -0.21167,-0.28575 a 8.1227082,8.1227082 0 0 0 1.36525,-1.67217 10.689167,10.689167 0 0 0 -1.0795,-1.55575 l 0.22225,-0.26458 a 7.5882499,7.5882499 0 0 1 1.16417,1.27 11.316229,11.316229 0 0 0 0.64558,-1.4605 l 0.762,0.35983 a 8.7762291,8.7762291 0 0 1 -1.00541,1.73567 7.6120624,7.6120624 0 0 1 0.84666,3.34433 6.7442291,6.7442291 0 0 0 1.68275,-2.46591 h -1.11125 v -2.42359 h 5.45836 v 2.42359 h -3.46869 a 5.9293124,5.9293124 0 0 1 -0.41275,0.762 z m -4.97152,-1.19592 h 0.85725 v -1.55575 h -0.85725 z m 0.127,4.1275 h 0.97367 v -0.93133 h -0.97367 z m 1.41817,-4.1275 h 0.86783 v -1.55575 h -0.86783 z m 0.3175,4.1275 h 0.99219 v -0.93133 h -1.00278 z m 1.2356,-4.1275 h 0.87048 v -1.55575 h -0.87842 z"
       id="path63"
       style="stroke-width:0.264583" /><path
       class="cls-16"
       d="m 131.5376,116.94583 v 0.52917 h -9.12018 v -0.52917 h 5.42925 a 44.518791,44.518791 0 0 0 1.05833,-5.35516 l 1.03717,0.24341 c -0.43657,1.76742 -1.05834,3.85234 -1.61925,5.11175 z m -0.40216,-5.95841 h -8.30527 v -0.52917 h 3.96875 c -0.26459,-0.65617 -0.71967,-1.5875 -1.02659,-2.16958 l 0.28575,-0.21167 a 9.1466457,9.1466457 0 0 1 1.68275,2.11667 l -0.46566,0.26458 h 3.84968 z m -7.10936,0.79375 0.35984,-0.127 a 19.203458,19.203458 0 0 1 1.651,4.58258 l -1.016,0.23283 a 29.739166,29.739166 0 0 0 -0.99484,-4.68577 z"
       id="path65"
       style="stroke-width:0.264583" /><path
       class="cls-16"
       d="m 93.850355,126.25123 v 4.45294 h -0.79375 v -0.9525 h -6.125104 v 0.97366 h -0.814916 v -4.4741 h 0.814916 v 3.02683 h 2.614084 v -3.90525 h -2.95275 v -3.556 h 0.79375 v 3.09034 h 2.159 v -3.96875 h 0.846666 v 3.96875 h 2.211917 v -3.07975 h 0.79375 v 3.54541 h -3.005667 v 3.90525 h 2.645834 v -3.02683 z"
       id="path67"
       style="stroke-width:0.264583" /><path
       class="cls-16"
       d="m 105.30417,129.81781 -0.56356,0.88636 a 6.4108541,6.4108541 0 0 1 -1.95528,-1.85209 7.6358749,7.6358749 0 0 1 -2.67758,1.91559 l -0.169332,-0.30692 a 7.5485624,7.5485624 0 0 0 2.497662,-2.20133 10.559521,10.559521 0 0 1 -1.0795,-3.92642 h -0.32808 v 0.22225 c 0,2.64583 -0.24342,4.72017 -1.460499,5.87375 l -0.137583,-0.11642 v 0.34925 h -0.762 v -4.26243 h -1.42875 c -0.116417,2.48708 -0.635,3.683 -1.185334,4.41325 l -0.28575,-0.20109 c 0.592667,-1.16416 0.709084,-2.64583 0.709084,-5.82083 v -3.86292 h 0.79375 v 3.175 h 1.2065 v -3.048 h 0.740833 v 3.048 h 0.687917 v 0.43392 h -2.645834 v 0.6985 c 0,0.26458 0,0.48683 0,0.71967 h 2.169584 v 4.09575 c 0.529166,-0.79375 0.793752,-2.25425 0.793752,-5.207 v -3.302 l 0.79375,0.22225 a 9.1969166,9.1969166 0 0 0 3.1406,-0.9525 l 0.68792,0.77258 a 17.565687,17.565687 0 0 1 -3.79677,0.52917 v 1.75683 h 2.73844 l 0.20108,-0.15875 0.79375,0.3175 c -0.23283,1.72508 -0.74083,3.10092 -1.50283,4.191 a 6.6992499,6.6992499 0 0 0 2.02406,1.59808 z m -2.48709,-2.18016 a 8.6333541,8.6333541 0 0 0 0.99484,-3.31259 h -2.11667 a 7.6332291,7.6332291 0 0 0 1.12977,3.31259 z"
       id="path69"
       style="stroke-width:0.264583" /><path
       class="cls-16"
       d="m 107.188,121.26648 h 2.99508 v 8.27617 c 0,1.24883 -0.96308,1.47108 -2.42358,0.60325 l 0.10583,-0.32809 c 1.36525,0.32809 1.53459,0.17992 1.53459,-0.4445 v -2.70933 H 107.95 c -0.0635,1.85208 -0.3175,3.03742 -1.32292,4.11692 l -0.26458,-0.24342 c 0.8255,-1.32292 0.83608,-2.76225 0.83608,-5.60917 z m 2.21192,4.97417 v -2.0955 h -1.42875 v 0.52916 c 0,0.56092 0,1.0795 0,1.55575 z m -1.42875,-4.53232 v 2.01084 h 1.42875 v -2.01084 z m 7.9666,8.11742 -0.58208,0.85725 a 7.0511457,7.0511457 0 0 1 -1.53194,-1.48167 6.0007499,6.0007499 0 0 1 -1.74625,1.44992 l -0.17992,-0.30692 a 6.1886041,6.1886041 0 0 0 1.56369,-1.67216 8.5142916,8.5142916 0 0 1 -1.11919,-3.02684 h -0.52916 v 5.06942 h -0.79375 v -9.41917 h 4.13544 c 0,1.11125 -0.0318,1.64042 -0.0741,2.20134 -0.11641,1.18533 -1.143,1.22766 -2.49502,0.39158 l 0.127,-0.32808 c 1.32292,0.34925 1.50019,0.23283 1.54252,-0.21167 a 14.216062,14.216062 0 0 0 0.0635,-1.60867 h -2.5056 v 3.47134 h 2.67494 l 0.21166,-0.17992 0.79375,0.28575 a 8.1253541,8.1253541 0 0 1 -1.21444,3.28083 6.3923333,6.3923333 0 0 0 1.65894,1.23032 z m -2.11666,-1.75683 a 7.2548749,7.2548749 0 0 0 0.75935,-2.42359 h -1.89177 a 7.0776041,7.0776041 0 0 0 1.12448,2.42623 z"
       id="path71"
       style="stroke-width:0.264583" /><path
       class="cls-16"
       d="m 120.08908,126.18773 a 6.6463332,6.6463332 0 0 0 0.61384,-1.3044 h -0.79375 v 4.92125 c 0,0.79375 -0.79375,1.2065 -2.36009,0.49742 l 0.0847,-0.32808 c 1.24883,0.22225 1.50283,0.13758 1.50283,-0.33867 v -3.28877 a 7.7681666,7.7681666 0 0 1 -2.00025,2.8575 l -0.26458,-0.28575 a 9.585854,9.585854 0 0 0 2.0955,-4.0349 h -1.91558 v -0.43391 h 2.38125 a 16.084021,16.084021 0 0 0 -1.41817,-1.83092 l 0.22225,-0.24342 a 9.7472499,9.7472499 0 0 1 1.10067,0.83609 6.8791666,6.8791666 0 0 0 1.00541,-1.32292 h -3.03741 v -0.4445 h 3.05858 l 0.26458,-0.14817 0.77259,0.52917 a 7.2204791,7.2204791 0 0 1 -1.778,1.67217 7.0167499,7.0167499 0 0 1 0.55033,0.5715 l -0.52917,0.40216 H 120.65 l 0.24342,-0.16933 0.762,0.43392 a 6.0854166,6.0854166 0 0 1 -1.30175,1.68275 z m 3.47134,0.56092 h 2.32568 a 28.27602,28.27602 0 0 1 -0.29633,3.09033 c -0.13758,0.762 -0.92075,1.143 -2.55852,0.30692 l 0.11642,-0.33867 c 1.41552,0.30692 1.60602,0.24342 1.70391,-0.32808 0.0714,-0.48684 0.15611,-1.41817 0.20902,-2.286 h -1.5875 c -0.37041,1.80975 -1.32291,2.93158 -3.1115,3.52425 l -0.14816,-0.32809 c 1.49225,-0.68791 2.16958,-1.651 2.45533,-3.19616 h -1.89442 v -0.4445 h 1.95792 c 0.0423,-0.30692 0.0635,-0.635 0.0847,-0.98425 h 0.8255 a 9.2233749,9.2233749 0 0 1 -0.082,0.98425 z m 2.96068,-1.38642 -0.35983,0.8255 a 5.9002083,5.9002083 0 0 1 -2.33627,-1.22767 7.1014166,7.1014166 0 0 1 -2.7305,1.34409 l -0.127,-0.33867 a 6.4637708,6.4637708 0 0 0 2.38125,-1.42875 5.1858333,5.1858333 0 0 1 -1.00542,-1.44992 5.5350833,5.5350833 0 0 1 -0.98425,1.00542 l -0.26458,-0.24342 a 7.7628749,7.7628749 0 0 0 1.48167,-2.93423 l 0.79375,0.26459 a 8.8291457,8.8291457 0 0 1 -0.381,0.87841 h 3.29935 v 0.4445 h -0.92075 a 4.7413333,4.7413333 0 0 1 -1.05833,2.00025 7.0484999,7.0484999 0 0 0 2.21191,0.8599 z m -3.91318,-2.64583 a 5.1170416,5.1170416 0 0 0 1.143,1.37583 4.0428333,4.0428333 0 0 0 0.76993,-1.5875 h -1.75418 z"
       id="path73"
       style="stroke-width:0.264583" /><circle
       class="cls-17"
       cx="49.522064"
       cy="49.522064"
       r="21.801666"
       id="circle75"
       style="stroke-width:2;stroke-dasharray:none" /><circle
       class="cls-19"
       cx="26.196398"
       cy="105.83334"
       r="21.801666"
       id="circle85"
       style="stroke-width:2;stroke-dasharray:none" /><circle
       class="cls-21"
       cx="49.522064"
       cy="162.14461"
       r="21.801666"
       id="circle95"
       style="stroke-width:2;stroke-dasharray:none" /><circle
       class="cls-23"
       cx="105.83334"
       cy="185.47028"
       r="21.801666"
       id="circle105"
       style="stroke-width:2;stroke-dasharray:none" /><circle
       class="cls-25"
       cx="185.47028"
       cy="105.83334"
       r="21.801666"
       id="circle115"
       style="stroke-width:2;stroke-dasharray:none" /><text
       xml:space="preserve"
       style="font-style:normal;font-variant:normal;font-weight:bold;font-stretch:normal;font-size:12.7px;font-family:'微軟正黑體';-inkscape-font-specification:'微軟正黑體 Bold';fill:#3fa9f5;fill-opacity:1;stroke-width:0.264583"
       x="92.987617"
       y="23.13612"
       id="text614"><tspan
         sodipodi:role="line"
         id="tspan612"
         style="font-style:normal;font-variant:normal;font-weight:bold;font-stretch:normal;font-size:12.7px;font-family:'微軟正黑體';-inkscape-font-specification:'微軟正黑體 Bold';fill:#3fa9f5;fill-opacity:1;stroke-width:0.264583"
         x="92.987617"
         y="23.13612">專業</tspan><tspan
         sodipodi:role="line"
         style="font-style:normal;font-variant:normal;font-weight:bold;font-stretch:normal;font-size:12.7px;font-family:'微軟正黑體';-inkscape-font-specification:'微軟正黑體 Bold';fill:#3fa9f5;fill-opacity:1;stroke-width:0.264583"
         x="92.987617"
         y="39.01112"
         id="tspan666">服務</tspan></text><text
       xml:space="preserve"
       style="font-style:normal;font-variant:normal;font-weight:bold;font-stretch:normal;font-size:12.7px;font-family:'微軟正黑體';-inkscape-font-specification:'微軟正黑體 Bold';fill:#e08300;fill-opacity:1;stroke-width:0.264583"
       x="149.35469"
       y="46.486591"
       id="text670"><tspan
         sodipodi:role="line"
         id="tspan668"
         style="font-size:12.7px;fill:#e08300;fill-opacity:1;stroke-width:0.264583"
         x="149.35469"
         y="46.486591">精美</tspan><tspan
         sodipodi:role="line"
         style="font-size:12.7px;fill:#e08300;fill-opacity:1;stroke-width:0.264583"
         x="149.35469"
         y="62.361591"
         id="tspan672">圖文</tspan></text><text
       xml:space="preserve"
       style="font-style:normal;font-variant:normal;font-weight:bold;font-stretch:normal;font-size:12.7px;font-family:'微軟正黑體';-inkscape-font-specification:'微軟正黑體 Bold';fill:#007f3a;fill-opacity:1;stroke-width:0.264583"
       x="172.69896"
       y="102.79787"
       id="text676"><tspan
         sodipodi:role="line"
         id="tspan674"
         style="font-size:12.7px;fill:#007f3a;fill-opacity:1;stroke-width:0.264583"
         x="172.69896"
         y="102.79787">多元</tspan><tspan
         sodipodi:role="line"
         style="font-size:12.7px;fill:#007f3a;fill-opacity:1;stroke-width:0.264583"
         x="172.69896"
         y="118.67287"
         id="tspan678">裝幀</tspan></text><text
       xml:space="preserve"
       style="font-style:normal;font-variant:normal;font-weight:bold;font-stretch:normal;font-size:12.7px;font-family:'微軟正黑體';-inkscape-font-specification:'微軟正黑體 Bold';fill:#e5005a;fill-opacity:1;stroke-width:0.264583"
       x="149.46321"
       y="159.14635"
       id="text682"><tspan
         sodipodi:role="line"
         id="tspan680"
         style="font-size:12.7px;fill:#e5005a;fill-opacity:1;stroke-width:0.264583"
         x="149.46321"
         y="159.14635">影音</tspan><tspan
         sodipodi:role="line"
         style="font-size:12.7px;fill:#e5005a;fill-opacity:1;stroke-width:0.264583"
         x="149.46321"
         y="175.02135"
         id="tspan684">製作</tspan></text><text
       xml:space="preserve"
       style="font-style:normal;font-variant:normal;font-weight:bold;font-stretch:normal;font-size:12.7px;font-family:'微軟正黑體';-inkscape-font-specification:'微軟正黑體 Bold';fill:#005995;fill-opacity:1;stroke-width:0.264583"
       x="86.650017"
       y="189.82487"
       id="text735"><tspan
         sodipodi:role="line"
         id="tspan733"
         style="font-size:12.7px;fill:#005995;fill-opacity:1;stroke-width:0.264583"
         x="86.650017"
         y="189.82487">電子書</tspan></text><text
       xml:space="preserve"
       style="font-style:normal;font-variant:normal;font-weight:bold;font-stretch:normal;font-size:12.7px;font-family:'微軟正黑體';-inkscape-font-specification:'微軟正黑體 Bold';fill:#93278f;fill-opacity:1;stroke-width:0.264583"
       x="36.750751"
       y="159.14014"
       id="text739"><tspan
         sodipodi:role="line"
         id="tspan737"
         style="font-size:12.7px;fill:#93278f;fill-opacity:1;stroke-width:0.264583"
         x="36.750751"
         y="159.14014">最廣</tspan><tspan
         sodipodi:role="line"
         style="font-size:12.7px;fill:#93278f;fill-opacity:1;stroke-width:0.264583"
         x="36.750751"
         y="175.01514"
         id="tspan741">通路</tspan></text><text
       xml:space="preserve"
       style="font-style:normal;font-variant:normal;font-weight:bold;font-stretch:normal;font-size:11.2889px;font-family:'微軟正黑體';-inkscape-font-specification:'微軟正黑體 Bold';text-align:center;text-anchor:middle;fill:#f15a24;stroke-width:0.264583;fill-opacity:1"
       x="25.986937"
       y="103.15168"
       id="text745"><tspan
         sodipodi:role="line"
         id="tspan743"
         style="text-align:center;text-anchor:middle;stroke-width:0.264583;fill:#f15a24;fill-opacity:1"
         x="25.986935"
         y="103.15168">圖<tspan
   style="text-align:center;text-anchor:middle;fill:#f15a24;fill-opacity:1"
   id="tspan813">書館</tspan></tspan><tspan
         sodipodi:role="line"
         style="text-align:center;text-anchor:middle;stroke-width:0.264583;fill:#f15a24;fill-opacity:1"
         x="25.986937"
         y="117.2628"
         id="tspan747"><tspan
   style="text-align:center;text-anchor:middle;fill:#f15a24;fill-opacity:1"
   id="tspan815">典</tspan>藏</tspan></text><text
       xml:space="preserve"
       style="font-style:normal;font-variant:normal;font-weight:bold;font-stretch:normal;font-size:12.7px;font-family:'微軟正黑體';-inkscape-font-specification:'微軟正黑體 Bold';fill:#22ac38;fill-opacity:1;stroke-width:0.264583"
       x="36.744549"
       y="46.449383"
       id="text751"><tspan
         sodipodi:role="line"
         id="tspan749"
         style="font-size:12.7px;fill:#22ac38;fill-opacity:1;stroke-width:0.264583"
         x="36.744549"
         y="46.449383">整合</tspan><tspan
         sodipodi:role="line"
         style="font-size:12.7px;fill:#22ac38;fill-opacity:1;stroke-width:0.264583"
         x="36.744549"
         y="62.324383"
         id="tspan753">行銷</tspan></text></g></svg>
